<svg width="276" height="32" viewBox="0 0 276 32" fill="none" xmlns="http://www.w3.org/2000/svg">
<path d="M1.222 22.452L6.292 17.694C7.228 16.81 7.96467 16.0647 8.502 15.458C9.05667 14.8513 9.44667 14.2967 9.672 13.794C9.91467 13.274 10.036 12.7367 10.036 12.182C10.036 11.4193 9.828 10.804 9.412 10.336C9.01333 9.85067 8.33733 9.608 7.384 9.608C6.812 9.608 6.318 9.74667 5.902 10.024C5.486 10.284 5.16533 10.6653 4.94 11.168C4.71467 11.6707 4.59333 12.2773 4.576 12.988H1.196C1.23067 11.5147 1.534 10.31 2.106 9.374C2.678 8.438 3.432 7.74467 4.368 7.294C5.304 6.84333 6.344 6.618 7.488 6.618C8.82267 6.618 9.94933 6.86067 10.868 7.346C11.7867 7.814 12.4713 8.45533 12.922 9.27C13.39 10.0847 13.624 11.0207 13.624 12.078C13.624 12.858 13.4853 13.6033 13.208 14.314C12.948 15.0247 12.4973 15.7787 11.856 16.576C11.2147 17.3733 10.322 18.292 9.178 19.332L6.162 22.062H14.04V25H1.222V22.452ZM25.3973 21.152H16.2453V18.5L24.7733 6.8H28.9073V18.214H31.1953V21.152H28.9073V25H25.3973V21.152ZM25.5533 18.214V10.544L20.1193 18.214H25.5533ZM33.985 6.28H37.313V13.274C37.7117 12.8407 38.2057 12.494 38.795 12.234C39.4017 11.9567 40.0777 11.818 40.823 11.818C41.811 11.818 42.669 12.0347 43.397 12.468C44.1424 12.9013 44.7144 13.534 45.113 14.366C45.5117 15.1807 45.711 16.1947 45.711 17.408V25H42.201V17.85C42.201 16.8447 42.0017 16.0907 41.603 15.588C41.2044 15.0853 40.6064 14.834 39.809 14.834C38.9944 14.834 38.3704 15.1113 37.937 15.666C37.521 16.2033 37.313 16.9747 37.313 17.98V25H33.985V6.28Z" fill="#EFEFF3"/>
<path d="M63.7599 13.144H63.1999L59.6799 23H58.0479L62.0799 11.8H64.8479L68.8799 23H67.2479L63.7599 13.144ZM60.1119 18.808H66.6399V20.152H60.1119V18.808ZM78.674 11.8H80.354L76.146 23H74.306L70.114 11.8H71.81L75.234 21.352L78.674 11.8ZM90.2438 13.144H84.3558V16.648H88.7718V17.992H84.3558V21.656H90.2438V23H82.7558V11.8H90.2438V13.144ZM99.5909 15.144C99.5909 14.536 99.4096 14.0507 99.0469 13.688C98.6843 13.3253 98.1083 13.144 97.3189 13.144H94.7589V17.128H97.3349C97.8576 17.128 98.2843 17.048 98.6149 16.888C98.9456 16.7173 99.1909 16.4827 99.3509 16.184C99.5109 15.8853 99.5909 15.5387 99.5909 15.144ZM97.3189 11.8C98.2043 11.8 98.9296 11.9547 99.4949 12.264C100.071 12.5627 100.498 12.9627 100.775 13.464C101.063 13.9653 101.207 14.5253 101.207 15.144C101.207 15.5493 101.138 15.9493 100.999 16.344C100.86 16.7387 100.636 17.1013 100.327 17.432C100.018 17.752 99.6123 18.008 99.1109 18.2C98.6203 18.3813 98.0283 18.472 97.3349 18.472H94.7589V23H93.1589V11.8H97.3189ZM98.3429 17.928L101.431 23H99.6229L96.6469 17.928H98.3429ZM108.607 13.144H108.047L104.527 23H102.895L106.927 11.8H109.695L113.727 23H112.095L108.607 13.144ZM104.959 18.808H111.487V20.152H104.959V18.808ZM124.433 15.224C124.028 14.4667 123.51 13.9173 122.881 13.576C122.262 13.2347 121.585 13.064 120.849 13.064C120.102 13.064 119.42 13.2453 118.801 13.608C118.182 13.9707 117.692 14.4773 117.329 15.128C116.977 15.768 116.801 16.5253 116.801 17.4C116.801 18.264 116.977 19.0213 117.329 19.672C117.681 20.3227 118.161 20.8293 118.769 21.192C119.388 21.5547 120.076 21.736 120.833 21.736C121.377 21.736 121.889 21.64 122.369 21.448C122.849 21.256 123.265 20.9893 123.617 20.648C123.98 20.3067 124.262 19.9013 124.465 19.432V18.216H120.945V16.904H126.081V19.512C125.825 20.1947 125.441 20.808 124.929 21.352C124.428 21.896 123.825 22.328 123.121 22.648C122.428 22.9573 121.665 23.112 120.833 23.112C120.044 23.112 119.302 22.9733 118.609 22.696C117.926 22.4187 117.329 22.0293 116.817 21.528C116.305 21.016 115.905 20.4133 115.617 19.72C115.329 19.016 115.185 18.2427 115.185 17.4C115.185 16.568 115.329 15.8053 115.617 15.112C115.905 14.408 116.305 13.8 116.817 13.288C117.329 12.776 117.926 12.3813 118.609 12.104C119.302 11.8267 120.044 11.688 120.833 11.688C121.548 11.688 122.23 11.8053 122.881 12.04C123.532 12.2747 124.113 12.616 124.625 13.064C125.137 13.512 125.537 14.0613 125.825 14.712L124.433 15.224ZM136.278 13.144H130.39V16.648H134.806V17.992H130.39V21.656H136.278V23H128.79V11.8H136.278V13.144ZM150.81 15.144C150.81 14.536 150.628 14.0507 150.266 13.688C149.903 13.3253 149.327 13.144 148.538 13.144H145.978V17.128H148.554C149.076 17.128 149.503 17.048 149.834 16.888C150.164 16.7173 150.41 16.4827 150.57 16.184C150.73 15.8853 150.81 15.5387 150.81 15.144ZM148.538 11.8C149.423 11.8 150.148 11.9547 150.714 12.264C151.29 12.5627 151.716 12.9627 151.994 13.464C152.282 13.9653 152.426 14.5253 152.426 15.144C152.426 15.5493 152.356 15.9493 152.218 16.344C152.079 16.7387 151.855 17.1013 151.546 17.432C151.236 17.752 150.831 18.008 150.33 18.2C149.839 18.3813 149.247 18.472 148.554 18.472H145.978V23H144.378V11.8H148.538ZM149.562 17.928L152.65 23H150.842L147.866 17.928H149.562ZM162.738 13.144H156.85V16.648H161.266V17.992H156.85V21.656H162.738V23H155.25V11.8H162.738V13.144ZM166.613 20.04C166.677 20.3387 166.805 20.616 166.997 20.872C167.199 21.128 167.471 21.336 167.813 21.496C168.154 21.656 168.575 21.736 169.077 21.736C169.823 21.736 170.373 21.5653 170.725 21.224C171.087 20.872 171.269 20.4613 171.269 19.992C171.269 19.608 171.157 19.2933 170.933 19.048C170.719 18.792 170.421 18.5787 170.037 18.408C169.663 18.2267 169.231 18.0667 168.741 17.928C168.314 17.8 167.893 17.6667 167.477 17.528C167.071 17.3787 166.703 17.1973 166.373 16.984C166.042 16.76 165.781 16.4773 165.589 16.136C165.397 15.784 165.301 15.3467 165.301 14.824C165.301 14.1733 165.455 13.6133 165.765 13.144C166.074 12.6747 166.506 12.3173 167.061 12.072C167.626 11.816 168.277 11.688 169.013 11.688C169.631 11.688 170.186 11.7787 170.677 11.96C171.167 12.1307 171.578 12.3813 171.909 12.712C172.25 13.032 172.501 13.4213 172.661 13.88L171.205 14.408C171.141 14.1733 171.007 13.9547 170.805 13.752C170.602 13.5387 170.346 13.368 170.037 13.24C169.727 13.112 169.381 13.048 168.997 13.048C168.602 13.0373 168.245 13.1013 167.925 13.24C167.615 13.368 167.365 13.5547 167.173 13.8C166.991 14.0453 166.901 14.3387 166.901 14.68C166.901 15.0533 167.007 15.3467 167.221 15.56C167.434 15.7733 167.717 15.9493 168.069 16.088C168.431 16.2267 168.826 16.36 169.253 16.488C169.701 16.6267 170.138 16.776 170.565 16.936C170.991 17.096 171.375 17.2987 171.717 17.544C172.069 17.7893 172.351 18.0987 172.565 18.472C172.778 18.8347 172.885 19.2933 172.885 19.848C172.885 20.4453 172.746 20.9893 172.469 21.48C172.191 21.9707 171.77 22.3653 171.205 22.664C170.65 22.9627 169.951 23.112 169.109 23.112C168.415 23.112 167.791 23.0053 167.237 22.792C166.682 22.5787 166.223 22.2853 165.861 21.912C165.509 21.528 165.274 21.0853 165.157 20.584L166.613 20.04ZM179.779 17.128C180.301 17.128 180.728 17.048 181.059 16.888C181.4 16.7173 181.651 16.4827 181.811 16.184C181.971 15.8853 182.051 15.5387 182.051 15.144C182.051 14.5147 181.869 14.024 181.507 13.672C181.144 13.32 180.568 13.144 179.779 13.144H177.203V17.128H179.779ZM183.651 15.144C183.651 15.5493 183.581 15.9547 183.443 16.36C183.304 16.7547 183.08 17.112 182.771 17.432C182.461 17.752 182.056 18.008 181.555 18.2C181.064 18.3813 180.472 18.472 179.779 18.472H177.203V23H175.603V11.8H179.779C180.653 11.8 181.373 11.9547 181.939 12.264C182.515 12.5627 182.941 12.968 183.219 13.48C183.507 13.9813 183.651 14.536 183.651 15.144ZM191.28 23.112C190.49 23.112 189.749 22.9733 189.056 22.696C188.373 22.4187 187.776 22.0293 187.264 21.528C186.752 21.016 186.352 20.4133 186.064 19.72C185.776 19.016 185.632 18.2427 185.632 17.4C185.632 16.5573 185.776 15.7893 186.064 15.096C186.352 14.4027 186.752 13.8 187.264 13.288C187.776 12.776 188.373 12.3813 189.056 12.104C189.749 11.8267 190.49 11.688 191.28 11.688C192.058 11.688 192.789 11.8267 193.472 12.104C194.154 12.3813 194.752 12.776 195.264 13.288C195.776 13.8 196.176 14.4027 196.464 15.096C196.752 15.7893 196.896 16.5573 196.896 17.4C196.896 18.2427 196.752 19.016 196.464 19.72C196.176 20.4133 195.776 21.016 195.264 21.528C194.752 22.0293 194.154 22.4187 193.472 22.696C192.789 22.9733 192.058 23.112 191.28 23.112ZM191.28 21.736C192.037 21.736 192.714 21.56 193.312 21.208C193.92 20.856 194.4 20.3547 194.752 19.704C195.104 19.0533 195.28 18.2853 195.28 17.4C195.28 16.504 195.104 15.736 194.752 15.096C194.4 14.4453 193.92 13.944 193.312 13.592C192.714 13.24 192.037 13.064 191.28 13.064C190.512 13.064 189.824 13.24 189.216 13.592C188.608 13.944 188.128 14.4453 187.776 15.096C187.434 15.736 187.264 16.504 187.264 17.4C187.264 18.2853 187.434 19.0533 187.776 19.704C188.128 20.3547 188.608 20.856 189.216 21.208C189.824 21.56 190.512 21.736 191.28 21.736ZM208.303 11.8V23H206.671L201.087 14.328V23H199.487V11.8H201.119L206.703 20.44V11.8H208.303ZM212.491 20.04C212.555 20.3387 212.683 20.616 212.875 20.872C213.077 21.128 213.349 21.336 213.691 21.496C214.032 21.656 214.453 21.736 214.955 21.736C215.701 21.736 216.251 21.5653 216.603 21.224C216.965 20.872 217.147 20.4613 217.147 19.992C217.147 19.608 217.035 19.2933 216.811 19.048C216.597 18.792 216.299 18.5787 215.915 18.408C215.541 18.2267 215.109 18.0667 214.619 17.928C214.192 17.8 213.771 17.6667 213.355 17.528C212.949 17.3787 212.581 17.1973 212.251 16.984C211.92 16.76 211.659 16.4773 211.467 16.136C211.275 15.784 211.179 15.3467 211.179 14.824C211.179 14.1733 211.333 13.6133 211.643 13.144C211.952 12.6747 212.384 12.3173 212.939 12.072C213.504 11.816 214.155 11.688 214.891 11.688C215.509 11.688 216.064 11.7787 216.555 11.96C217.045 12.1307 217.456 12.3813 217.787 12.712C218.128 13.032 218.379 13.4213 218.539 13.88L217.083 14.408C217.019 14.1733 216.885 13.9547 216.683 13.752C216.48 13.5387 216.224 13.368 215.915 13.24C215.605 13.112 215.259 13.048 214.875 13.048C214.48 13.0373 214.123 13.1013 213.803 13.24C213.493 13.368 213.243 13.5547 213.051 13.8C212.869 14.0453 212.779 14.3387 212.779 14.68C212.779 15.0533 212.885 15.3467 213.099 15.56C213.312 15.7733 213.595 15.9493 213.947 16.088C214.309 16.2267 214.704 16.36 215.131 16.488C215.579 16.6267 216.016 16.776 216.443 16.936C216.869 17.096 217.253 17.2987 217.595 17.544C217.947 17.7893 218.229 18.0987 218.443 18.472C218.656 18.8347 218.763 19.2933 218.763 19.848C218.763 20.4453 218.624 20.9893 218.347 21.48C218.069 21.9707 217.648 22.3653 217.083 22.664C216.528 22.9627 215.829 23.112 214.987 23.112C214.293 23.112 213.669 23.0053 213.115 22.792C212.56 22.5787 212.101 22.2853 211.739 21.912C211.387 21.528 211.152 21.0853 211.035 20.584L212.491 20.04ZM228.969 13.144H223.081V16.648H227.497V17.992H223.081V21.656H228.969V23H221.481V11.8H228.969V13.144ZM236.444 11.8H245.036V13.144H241.548V23H239.948V13.144H236.444V11.8ZM247.628 11.8H249.228V23H247.628V11.8ZM254.053 23H252.453V11.8H254.213L258.197 20.872L262.165 11.8H263.909V23H262.325V14.904L258.773 23H257.605L254.053 14.904V23ZM274.625 13.144H268.737V16.648H273.153V17.992H268.737V21.656H274.625V23H267.137V11.8H274.625V13.144Z" fill="#EFEFF3"/>
</svg>
