<svg width="330" height="32" viewBox="0 0 330 32" fill="none" xmlns="http://www.w3.org/2000/svg">
<path d="M3.38 9.738H0.884V6.8H6.89V25H3.38V9.738ZM10.0622 15.9C10.0622 14.5307 10.1749 13.2827 10.4002 12.156C10.6255 11.012 11.0069 10.0327 11.5442 9.218C12.0815 8.386 12.8009 7.74467 13.7022 7.294C14.6035 6.84333 15.7129 6.618 17.0302 6.618C18.3822 6.618 19.5002 6.84333 20.3842 7.294C21.2855 7.74467 21.9962 8.386 22.5162 9.218C23.0535 10.0327 23.4349 11.012 23.6602 12.156C23.9029 13.2827 24.0242 14.5307 24.0242 15.9C24.0242 17.2867 23.9029 18.552 23.6602 19.696C23.4349 20.84 23.0535 21.8193 22.5162 22.634C21.9962 23.4487 21.2855 24.0813 20.3842 24.532C19.5002 24.9653 18.3822 25.182 17.0302 25.182C15.7129 25.182 14.6035 24.9653 13.7022 24.532C12.8009 24.0813 12.0815 23.4487 11.5442 22.634C11.0069 21.8193 10.6255 20.84 10.4002 19.696C10.1749 18.552 10.0622 17.2867 10.0622 15.9ZM20.4362 15.9C20.4362 15.0853 20.4015 14.3053 20.3322 13.56C20.2802 12.7973 20.1415 12.1213 19.9162 11.532C19.6909 10.9253 19.3529 10.4573 18.9022 10.128C18.4515 9.78133 17.8275 9.608 17.0302 9.608C16.2502 9.608 15.6349 9.78133 15.1842 10.128C14.7335 10.4573 14.3955 10.9253 14.1702 11.532C13.9449 12.1213 13.7975 12.7973 13.7282 13.56C13.6762 14.3053 13.6502 15.0853 13.6502 15.9C13.6502 16.7667 13.6762 17.5813 13.7282 18.344C13.7975 19.0893 13.9449 19.7567 14.1702 20.346C14.3955 20.918 14.7335 21.3687 15.1842 21.698C15.6349 22.0273 16.2502 22.192 17.0302 22.192C17.8275 22.192 18.4515 22.0273 18.9022 21.698C19.3529 21.3687 19.6909 20.918 19.9162 20.346C20.1415 19.7567 20.2802 19.0893 20.3322 18.344C20.4015 17.5813 20.4362 16.7667 20.4362 15.9ZM26.82 15.9C26.82 14.5307 26.9327 13.2827 27.158 12.156C27.3833 11.012 27.7647 10.0327 28.302 9.218C28.8393 8.386 29.5587 7.74467 30.46 7.294C31.3613 6.84333 32.4707 6.618 33.788 6.618C35.14 6.618 36.258 6.84333 37.142 7.294C38.0433 7.74467 38.754 8.386 39.274 9.218C39.8113 10.0327 40.1927 11.012 40.418 12.156C40.6607 13.2827 40.782 14.5307 40.782 15.9C40.782 17.2867 40.6607 18.552 40.418 19.696C40.1927 20.84 39.8113 21.8193 39.274 22.634C38.754 23.4487 38.0433 24.0813 37.142 24.532C36.258 24.9653 35.14 25.182 33.788 25.182C32.4707 25.182 31.3613 24.9653 30.46 24.532C29.5587 24.0813 28.8393 23.4487 28.302 22.634C27.7647 21.8193 27.3833 20.84 27.158 19.696C26.9327 18.552 26.82 17.2867 26.82 15.9ZM37.194 15.9C37.194 15.0853 37.1593 14.3053 37.09 13.56C37.038 12.7973 36.8993 12.1213 36.674 11.532C36.4487 10.9253 36.1107 10.4573 35.66 10.128C35.2093 9.78133 34.5853 9.608 33.788 9.608C33.008 9.608 32.3927 9.78133 31.942 10.128C31.4913 10.4573 31.1533 10.9253 30.928 11.532C30.7027 12.1213 30.5553 12.7973 30.486 13.56C30.434 14.3053 30.408 15.0853 30.408 15.9C30.408 16.7667 30.434 17.5813 30.486 18.344C30.5553 19.0893 30.7027 19.7567 30.928 20.346C31.1533 20.918 31.4913 21.3687 31.942 21.698C32.3927 22.0273 33.008 22.192 33.788 22.192C34.5853 22.192 35.2093 22.0273 35.66 21.698C36.1107 21.3687 36.4487 20.918 36.674 20.346C36.8993 19.7567 37.038 19.0893 37.09 18.344C37.1593 17.5813 37.194 16.7667 37.194 15.9ZM43.5778 15.9C43.5778 14.5307 43.6905 13.2827 43.9158 12.156C44.1412 11.012 44.5225 10.0327 45.0598 9.218C45.5972 8.386 46.3165 7.74467 47.2178 7.294C48.1192 6.84333 49.2285 6.618 50.5458 6.618C51.8978 6.618 53.0158 6.84333 53.8998 7.294C54.8012 7.74467 55.5118 8.386 56.0318 9.218C56.5692 10.0327 56.9505 11.012 57.1758 12.156C57.4185 13.2827 57.5398 14.5307 57.5398 15.9C57.5398 17.2867 57.4185 18.552 57.1758 19.696C56.9505 20.84 56.5692 21.8193 56.0318 22.634C55.5118 23.4487 54.8012 24.0813 53.8998 24.532C53.0158 24.9653 51.8978 25.182 50.5458 25.182C49.2285 25.182 48.1192 24.9653 47.2178 24.532C46.3165 24.0813 45.5972 23.4487 45.0598 22.634C44.5225 21.8193 44.1412 20.84 43.9158 19.696C43.6905 18.552 43.5778 17.2867 43.5778 15.9ZM53.9518 15.9C53.9518 15.0853 53.9172 14.3053 53.8478 13.56C53.7958 12.7973 53.6572 12.1213 53.4318 11.532C53.2065 10.9253 52.8685 10.4573 52.4178 10.128C51.9672 9.78133 51.3432 9.608 50.5458 9.608C49.7658 9.608 49.1505 9.78133 48.6998 10.128C48.2492 10.4573 47.9112 10.9253 47.6858 11.532C47.4605 12.1213 47.3132 12.7973 47.2438 13.56C47.1918 14.3053 47.1658 15.0853 47.1658 15.9C47.1658 16.7667 47.1918 17.5813 47.2438 18.344C47.3132 19.0893 47.4605 19.7567 47.6858 20.346C47.9112 20.918 48.2492 21.3687 48.6998 21.698C49.1505 22.0273 49.7658 22.192 50.5458 22.192C51.3432 22.192 51.9672 22.0273 52.4178 21.698C52.8685 21.3687 53.2065 20.918 53.4318 20.346C53.6572 19.7567 53.7958 19.0893 53.8478 18.344C53.9172 17.5813 53.9518 16.7667 53.9518 15.9ZM60.3356 15.9C60.3356 14.5307 60.4483 13.2827 60.6736 12.156C60.899 11.012 61.2803 10.0327 61.8176 9.218C62.355 8.386 63.0743 7.74467 63.9756 7.294C64.877 6.84333 65.9863 6.618 67.3036 6.618C68.6556 6.618 69.7736 6.84333 70.6576 7.294C71.559 7.74467 72.2696 8.386 72.7896 9.218C73.327 10.0327 73.7083 11.012 73.9336 12.156C74.1763 13.2827 74.2976 14.5307 74.2976 15.9C74.2976 17.2867 74.1763 18.552 73.9336 19.696C73.7083 20.84 73.327 21.8193 72.7896 22.634C72.2696 23.4487 71.559 24.0813 70.6576 24.532C69.7736 24.9653 68.6556 25.182 67.3036 25.182C65.9863 25.182 64.877 24.9653 63.9756 24.532C63.0743 24.0813 62.355 23.4487 61.8176 22.634C61.2803 21.8193 60.899 20.84 60.6736 19.696C60.4483 18.552 60.3356 17.2867 60.3356 15.9ZM70.7096 15.9C70.7096 15.0853 70.675 14.3053 70.6056 13.56C70.5536 12.7973 70.415 12.1213 70.1896 11.532C69.9643 10.9253 69.6263 10.4573 69.1756 10.128C68.725 9.78133 68.101 9.608 67.3036 9.608C66.5236 9.608 65.9083 9.78133 65.4576 10.128C65.007 10.4573 64.669 10.9253 64.4436 11.532C64.2183 12.1213 64.071 12.7973 64.0016 13.56C63.9496 14.3053 63.9236 15.0853 63.9236 15.9C63.9236 16.7667 63.9496 17.5813 64.0016 18.344C64.071 19.0893 64.2183 19.7567 64.4436 20.346C64.669 20.918 65.007 21.3687 65.4576 21.698C65.9083 22.0273 66.5236 22.192 67.3036 22.192C68.101 22.192 68.725 22.0273 69.1756 21.698C69.6263 21.3687 69.9643 20.918 70.1896 20.346C70.415 19.7567 70.5536 19.0893 70.6056 18.344C70.675 17.5813 70.7096 16.7667 70.7096 15.9ZM85.3095 9.27V22.53H81.9815V9.27H85.3095ZM77.0155 14.366H90.2755V17.434H77.0155V14.366Z" fill="#EFEFF3"/>
<path d="M108.484 11.8C109.7 11.8 110.745 12.0293 111.62 12.488C112.505 12.9467 113.188 13.5973 113.668 14.44C114.159 15.2827 114.404 16.2853 114.404 17.448C114.404 18.6 114.159 19.592 113.668 20.424C113.188 21.2453 112.505 21.88 111.62 22.328C110.745 22.776 109.7 23 108.484 23H104.644V11.8H108.484ZM108.484 21.656C109.892 21.656 110.959 21.288 111.684 20.552C112.42 19.8053 112.788 18.7707 112.788 17.448C112.788 16.104 112.42 15.0533 111.684 14.296C110.959 13.528 109.892 13.144 108.484 13.144H106.244V21.656H108.484ZM124.488 13.144H118.6V16.648H123.016V17.992H118.6V21.656H124.488V23H117V11.8H124.488V13.144ZM135.115 11.8H136.795L132.587 23H130.747L126.555 11.8H128.251L131.675 21.352L135.115 11.8ZM146.685 13.144H140.797V16.648H145.213V17.992H140.797V21.656H146.685V23H139.197V11.8H146.685V13.144ZM151.2 11.8V21.656H156.32V23H149.6V11.8H151.2ZM163.73 23.112C162.941 23.112 162.2 22.9733 161.506 22.696C160.824 22.4187 160.226 22.0293 159.714 21.528C159.202 21.016 158.802 20.4133 158.514 19.72C158.226 19.016 158.082 18.2427 158.082 17.4C158.082 16.5573 158.226 15.7893 158.514 15.096C158.802 14.4027 159.202 13.8 159.714 13.288C160.226 12.776 160.824 12.3813 161.506 12.104C162.2 11.8267 162.941 11.688 163.73 11.688C164.509 11.688 165.24 11.8267 165.922 12.104C166.605 12.3813 167.202 12.776 167.714 13.288C168.226 13.8 168.626 14.4027 168.914 15.096C169.202 15.7893 169.346 16.5573 169.346 17.4C169.346 18.2427 169.202 19.016 168.914 19.72C168.626 20.4133 168.226 21.016 167.714 21.528C167.202 22.0293 166.605 22.4187 165.922 22.696C165.24 22.9733 164.509 23.112 163.73 23.112ZM163.73 21.736C164.488 21.736 165.165 21.56 165.762 21.208C166.37 20.856 166.85 20.3547 167.202 19.704C167.554 19.0533 167.73 18.2853 167.73 17.4C167.73 16.504 167.554 15.736 167.202 15.096C166.85 14.4453 166.37 13.944 165.762 13.592C165.165 13.24 164.488 13.064 163.73 13.064C162.962 13.064 162.274 13.24 161.666 13.592C161.058 13.944 160.578 14.4453 160.226 15.096C159.885 15.736 159.714 16.504 159.714 17.4C159.714 18.2853 159.885 19.0533 160.226 19.704C160.578 20.3547 161.058 20.856 161.666 21.208C162.274 21.56 162.962 21.736 163.73 21.736ZM176.114 17.128C176.636 17.128 177.063 17.048 177.394 16.888C177.735 16.7173 177.986 16.4827 178.146 16.184C178.306 15.8853 178.386 15.5387 178.386 15.144C178.386 14.5147 178.204 14.024 177.842 13.672C177.479 13.32 176.903 13.144 176.114 13.144H173.538V17.128H176.114ZM179.986 15.144C179.986 15.5493 179.916 15.9547 179.778 16.36C179.639 16.7547 179.415 17.112 179.106 17.432C178.796 17.752 178.391 18.008 177.89 18.2C177.399 18.3813 176.807 18.472 176.114 18.472H173.538V23H171.938V11.8H176.114C176.988 11.8 177.708 11.9547 178.274 12.264C178.85 12.5627 179.276 12.968 179.554 13.48C179.842 13.9813 179.986 14.536 179.986 15.144ZM190.079 13.144H184.191V16.648H188.607V17.992H184.191V21.656H190.079V23H182.591V11.8H190.079V13.144ZM199.426 15.144C199.426 14.536 199.245 14.0507 198.882 13.688C198.519 13.3253 197.943 13.144 197.154 13.144H194.594V17.128H197.17C197.693 17.128 198.119 17.048 198.45 16.888C198.781 16.7173 199.026 16.4827 199.186 16.184C199.346 15.8853 199.426 15.5387 199.426 15.144ZM197.154 11.8C198.039 11.8 198.765 11.9547 199.33 12.264C199.906 12.5627 200.333 12.9627 200.61 13.464C200.898 13.9653 201.042 14.5253 201.042 15.144C201.042 15.5493 200.973 15.9493 200.834 16.344C200.695 16.7387 200.471 17.1013 200.162 17.432C199.853 17.752 199.447 18.008 198.946 18.2C198.455 18.3813 197.863 18.472 197.17 18.472H194.594V23H192.994V11.8H197.154ZM198.178 17.928L201.266 23H199.458L196.482 17.928H198.178ZM204.826 20.04C204.89 20.3387 205.018 20.616 205.21 20.872C205.412 21.128 205.684 21.336 206.026 21.496C206.367 21.656 206.788 21.736 207.29 21.736C208.036 21.736 208.586 21.5653 208.938 21.224C209.3 20.872 209.482 20.4613 209.482 19.992C209.482 19.608 209.37 19.2933 209.146 19.048C208.932 18.792 208.634 18.5787 208.25 18.408C207.876 18.2267 207.444 18.0667 206.954 17.928C206.527 17.8 206.106 17.6667 205.69 17.528C205.284 17.3787 204.916 17.1973 204.586 16.984C204.255 16.76 203.994 16.4773 203.802 16.136C203.61 15.784 203.514 15.3467 203.514 14.824C203.514 14.1733 203.668 13.6133 203.978 13.144C204.287 12.6747 204.719 12.3173 205.274 12.072C205.839 11.816 206.49 11.688 207.226 11.688C207.844 11.688 208.399 11.7787 208.89 11.96C209.38 12.1307 209.791 12.3813 210.122 12.712C210.463 13.032 210.714 13.4213 210.874 13.88L209.418 14.408C209.354 14.1733 209.22 13.9547 209.018 13.752C208.815 13.5387 208.559 13.368 208.25 13.24C207.94 13.112 207.594 13.048 207.21 13.048C206.815 13.0373 206.458 13.1013 206.138 13.24C205.828 13.368 205.578 13.5547 205.386 13.8C205.204 14.0453 205.114 14.3387 205.114 14.68C205.114 15.0533 205.22 15.3467 205.434 15.56C205.647 15.7733 205.93 15.9493 206.282 16.088C206.644 16.2267 207.039 16.36 207.466 16.488C207.914 16.6267 208.351 16.776 208.778 16.936C209.204 17.096 209.588 17.2987 209.93 17.544C210.282 17.7893 210.564 18.0987 210.778 18.472C210.991 18.8347 211.098 19.2933 211.098 19.848C211.098 20.4453 210.959 20.9893 210.682 21.48C210.404 21.9707 209.983 22.3653 209.418 22.664C208.863 22.9627 208.164 23.112 207.322 23.112C206.628 23.112 206.004 23.0053 205.45 22.792C204.895 22.5787 204.436 22.2853 204.074 21.912C203.722 21.528 203.487 21.0853 203.37 20.584L204.826 20.04ZM219 11.8H220.6V23H219V11.8ZM232.641 11.8V23H231.009L225.425 14.328V23H223.825V11.8H225.457L231.041 20.44V11.8H232.641ZM244.893 11.8C246.109 11.8 247.155 12.0293 248.029 12.488C248.915 12.9467 249.597 13.5973 250.077 14.44C250.568 15.2827 250.813 16.2853 250.813 17.448C250.813 18.6 250.568 19.592 250.077 20.424C249.597 21.2453 248.915 21.88 248.029 22.328C247.155 22.776 246.109 23 244.893 23H241.053V11.8H244.893ZM244.893 21.656C246.301 21.656 247.368 21.288 248.093 20.552C248.829 19.8053 249.197 18.7707 249.197 17.448C249.197 16.104 248.829 15.0533 248.093 14.296C247.368 13.528 246.301 13.144 244.893 13.144H242.653V21.656H244.893ZM257.986 13.144H257.426L253.906 23H252.274L256.306 11.8H259.074L263.106 23H261.474L257.986 13.144ZM254.338 18.808H260.866V20.152H254.338V18.808ZM264.564 11.8H273.156V13.144H269.668V23H268.068V13.144H264.564V11.8ZM280.323 13.144H279.763L276.243 23H274.611L278.643 11.8H281.411L285.443 23H283.811L280.323 13.144ZM276.675 18.808H283.203V20.152H276.675V18.808ZM294.213 14.904C294.213 14.36 294.032 13.9333 293.669 13.624C293.317 13.304 292.805 13.144 292.133 13.144H289.125V16.648H292.149C292.8 16.648 293.306 16.4933 293.669 16.184C294.032 15.8747 294.213 15.448 294.213 14.904ZM287.525 23V11.8H292.277C293.066 11.8 293.722 11.9333 294.245 12.2C294.768 12.4667 295.157 12.8187 295.413 13.256C295.68 13.6933 295.813 14.1787 295.813 14.712C295.813 15.2133 295.717 15.6347 295.525 15.976C295.344 16.3173 295.098 16.5893 294.789 16.792C294.49 16.9947 294.149 17.1387 293.765 17.224V17.336C294.224 17.4 294.624 17.5387 294.965 17.752C295.317 17.9547 295.589 18.2427 295.781 18.616C295.984 18.9893 296.085 19.4533 296.085 20.008C296.085 20.5627 295.941 21.0693 295.653 21.528C295.365 21.9867 294.949 22.3493 294.405 22.616C293.872 22.872 293.221 23 292.453 23H287.525ZM289.125 21.656H292.309C292.992 21.656 293.525 21.5013 293.909 21.192C294.304 20.872 294.501 20.4187 294.501 19.832C294.501 19.2347 294.293 18.7813 293.877 18.472C293.472 18.152 292.933 17.992 292.261 17.992H289.125V21.656ZM303.457 13.144H302.897L299.377 23H297.745L301.777 11.8H304.545L308.577 23H306.945L303.457 13.144ZM299.809 18.808H306.337V20.152H299.809V18.808ZM311.62 20.04C311.684 20.3387 311.812 20.616 312.004 20.872C312.206 21.128 312.478 21.336 312.82 21.496C313.161 21.656 313.582 21.736 314.084 21.736C314.83 21.736 315.38 21.5653 315.732 21.224C316.094 20.872 316.276 20.4613 316.276 19.992C316.276 19.608 316.164 19.2933 315.94 19.048C315.726 18.792 315.428 18.5787 315.044 18.408C314.67 18.2267 314.238 18.0667 313.748 17.928C313.321 17.8 312.9 17.6667 312.484 17.528C312.078 17.3787 311.71 17.1973 311.38 16.984C311.049 16.76 310.788 16.4773 310.596 16.136C310.404 15.784 310.308 15.3467 310.308 14.824C310.308 14.1733 310.462 13.6133 310.772 13.144C311.081 12.6747 311.513 12.3173 312.068 12.072C312.633 11.816 313.284 11.688 314.02 11.688C314.638 11.688 315.193 11.7787 315.684 11.96C316.174 12.1307 316.585 12.3813 316.916 12.712C317.257 13.032 317.508 13.4213 317.668 13.88L316.212 14.408C316.148 14.1733 316.014 13.9547 315.812 13.752C315.609 13.5387 315.353 13.368 315.044 13.24C314.734 13.112 314.388 13.048 314.004 13.048C313.609 13.0373 313.252 13.1013 312.932 13.24C312.622 13.368 312.372 13.5547 312.18 13.8C311.998 14.0453 311.908 14.3387 311.908 14.68C311.908 15.0533 312.014 15.3467 312.228 15.56C312.441 15.7733 312.724 15.9493 313.076 16.088C313.438 16.2267 313.833 16.36 314.26 16.488C314.708 16.6267 315.145 16.776 315.572 16.936C315.998 17.096 316.382 17.2987 316.724 17.544C317.076 17.7893 317.358 18.0987 317.572 18.472C317.785 18.8347 317.892 19.2933 317.892 19.848C317.892 20.4453 317.753 20.9893 317.476 21.48C317.198 21.9707 316.777 22.3653 316.212 22.664C315.657 22.9627 314.958 23.112 314.116 23.112C313.422 23.112 312.798 23.0053 312.244 22.792C311.689 22.5787 311.23 22.2853 310.868 21.912C310.516 21.528 310.281 21.0853 310.164 20.584L311.62 20.04ZM328.098 13.144H322.21V16.648H326.626V17.992H322.21V21.656H328.098V23H320.61V11.8H328.098V13.144Z" fill="#EFEFF3"/>
</svg>
