<svg width="210" height="32" viewBox="0 0 210 32" fill="none" xmlns="http://www.w3.org/2000/svg">
<path d="M3.38 9.738H0.884V6.8H6.89V25H3.38V9.738ZM10.0622 15.9C10.0622 14.5307 10.1749 13.2827 10.4002 12.156C10.6255 11.012 11.0069 10.0327 11.5442 9.218C12.0815 8.386 12.8009 7.74467 13.7022 7.294C14.6035 6.84333 15.7129 6.618 17.0302 6.618C18.3822 6.618 19.5002 6.84333 20.3842 7.294C21.2855 7.74467 21.9962 8.386 22.5162 9.218C23.0535 10.0327 23.4349 11.012 23.6602 12.156C23.9029 13.2827 24.0242 14.5307 24.0242 15.9C24.0242 17.2867 23.9029 18.552 23.6602 19.696C23.4349 20.84 23.0535 21.8193 22.5162 22.634C21.9962 23.4487 21.2855 24.0813 20.3842 24.532C19.5002 24.9653 18.3822 25.182 17.0302 25.182C15.7129 25.182 14.6035 24.9653 13.7022 24.532C12.8009 24.0813 12.0815 23.4487 11.5442 22.634C11.0069 21.8193 10.6255 20.84 10.4002 19.696C10.1749 18.552 10.0622 17.2867 10.0622 15.9ZM20.4362 15.9C20.4362 15.0853 20.4015 14.3053 20.3322 13.56C20.2802 12.7973 20.1415 12.1213 19.9162 11.532C19.6909 10.9253 19.3529 10.4573 18.9022 10.128C18.4515 9.78133 17.8275 9.608 17.0302 9.608C16.2502 9.608 15.6349 9.78133 15.1842 10.128C14.7335 10.4573 14.3955 10.9253 14.1702 11.532C13.9449 12.1213 13.7975 12.7973 13.7282 13.56C13.6762 14.3053 13.6502 15.0853 13.6502 15.9C13.6502 16.7667 13.6762 17.5813 13.7282 18.344C13.7975 19.0893 13.9449 19.7567 14.1702 20.346C14.3955 20.918 14.7335 21.3687 15.1842 21.698C15.6349 22.0273 16.2502 22.192 17.0302 22.192C17.8275 22.192 18.4515 22.0273 18.9022 21.698C19.3529 21.3687 19.6909 20.918 19.9162 20.346C20.1415 19.7567 20.2802 19.0893 20.3322 18.344C20.4015 17.5813 20.4362 16.7667 20.4362 15.9ZM26.82 15.9C26.82 14.5307 26.9327 13.2827 27.158 12.156C27.3833 11.012 27.7647 10.0327 28.302 9.218C28.8393 8.386 29.5587 7.74467 30.46 7.294C31.3613 6.84333 32.4707 6.618 33.788 6.618C35.14 6.618 36.258 6.84333 37.142 7.294C38.0433 7.74467 38.754 8.386 39.274 9.218C39.8113 10.0327 40.1927 11.012 40.418 12.156C40.6607 13.2827 40.782 14.5307 40.782 15.9C40.782 17.2867 40.6607 18.552 40.418 19.696C40.1927 20.84 39.8113 21.8193 39.274 22.634C38.754 23.4487 38.0433 24.0813 37.142 24.532C36.258 24.9653 35.14 25.182 33.788 25.182C32.4707 25.182 31.3613 24.9653 30.46 24.532C29.5587 24.0813 28.8393 23.4487 28.302 22.634C27.7647 21.8193 27.3833 20.84 27.158 19.696C26.9327 18.552 26.82 17.2867 26.82 15.9ZM37.194 15.9C37.194 15.0853 37.1593 14.3053 37.09 13.56C37.038 12.7973 36.8993 12.1213 36.674 11.532C36.4487 10.9253 36.1107 10.4573 35.66 10.128C35.2093 9.78133 34.5853 9.608 33.788 9.608C33.008 9.608 32.3927 9.78133 31.942 10.128C31.4913 10.4573 31.1533 10.9253 30.928 11.532C30.7027 12.1213 30.5553 12.7973 30.486 13.56C30.434 14.3053 30.408 15.0853 30.408 15.9C30.408 16.7667 30.434 17.5813 30.486 18.344C30.5553 19.0893 30.7027 19.7567 30.928 20.346C31.1533 20.918 31.4913 21.3687 31.942 21.698C32.3927 22.0273 33.008 22.192 33.788 22.192C34.5853 22.192 35.2093 22.0273 35.66 21.698C36.1107 21.3687 36.4487 20.918 36.674 20.346C36.8993 19.7567 37.038 19.0893 37.09 18.344C37.1593 17.5813 37.194 16.7667 37.194 15.9ZM51.7938 9.27V22.53H48.4658V9.27H51.7938ZM43.4998 14.366H56.7598V17.434H43.4998V14.366Z" fill="#EFEFF3"/>
<path d="M73.2338 20.04C73.2978 20.3387 73.4258 20.616 73.6178 20.872C73.8204 21.128 74.0924 21.336 74.4338 21.496C74.7751 21.656 75.1964 21.736 75.6978 21.736C76.4444 21.736 76.9938 21.5653 77.3458 21.224C77.7084 20.872 77.8898 20.4613 77.8898 19.992C77.8898 19.608 77.7778 19.2933 77.5538 19.048C77.3404 18.792 77.0418 18.5787 76.6578 18.408C76.2844 18.2267 75.8524 18.0667 75.3618 17.928C74.9351 17.8 74.5138 17.6667 74.0978 17.528C73.6924 17.3787 73.3244 17.1973 72.9938 16.984C72.6631 16.76 72.4018 16.4773 72.2098 16.136C72.0178 15.784 71.9218 15.3467 71.9218 14.824C71.9218 14.1733 72.0764 13.6133 72.3858 13.144C72.6951 12.6747 73.1271 12.3173 73.6818 12.072C74.2471 11.816 74.8978 11.688 75.6338 11.688C76.2524 11.688 76.8071 11.7787 77.2978 11.96C77.7884 12.1307 78.1991 12.3813 78.5298 12.712C78.8711 13.032 79.1218 13.4213 79.2818 13.88L77.8258 14.408C77.7618 14.1733 77.6284 13.9547 77.4258 13.752C77.2231 13.5387 76.9671 13.368 76.6578 13.24C76.3484 13.112 76.0018 13.048 75.6178 13.048C75.2231 13.0373 74.8658 13.1013 74.5458 13.24C74.2364 13.368 73.9858 13.5547 73.7938 13.8C73.6124 14.0453 73.5218 14.3387 73.5218 14.68C73.5218 15.0533 73.6284 15.3467 73.8418 15.56C74.0551 15.7733 74.3378 15.9493 74.6898 16.088C75.0524 16.2267 75.4471 16.36 75.8738 16.488C76.3218 16.6267 76.7591 16.776 77.1858 16.936C77.6124 17.096 77.9964 17.2987 78.3378 17.544C78.6898 17.7893 78.9724 18.0987 79.1858 18.472C79.3991 18.8347 79.5058 19.2933 79.5058 19.848C79.5058 20.4453 79.3671 20.9893 79.0898 21.48C78.8124 21.9707 78.3911 22.3653 77.8258 22.664C77.2711 22.9627 76.5724 23.112 75.7298 23.112C75.0364 23.112 74.4124 23.0053 73.8578 22.792C73.3031 22.5787 72.8444 22.2853 72.4818 21.912C72.1298 21.528 71.8951 21.0853 71.7778 20.584L73.2338 20.04ZM89.7118 13.144H83.8238V16.648H88.2398V17.992H83.8238V21.656H89.7118V23H82.2238V11.8H89.7118V13.144ZM99.0589 15.144C99.0589 14.536 98.8776 14.0507 98.5149 13.688C98.1522 13.3253 97.5762 13.144 96.7869 13.144H94.2269V17.128H96.8029C97.3256 17.128 97.7522 17.048 98.0829 16.888C98.4136 16.7173 98.6589 16.4827 98.8189 16.184C98.9789 15.8853 99.0589 15.5387 99.0589 15.144ZM96.7869 11.8C97.6722 11.8 98.3976 11.9547 98.9629 12.264C99.5389 12.5627 99.9656 12.9627 100.243 13.464C100.531 13.9653 100.675 14.5253 100.675 15.144C100.675 15.5493 100.606 15.9493 100.467 16.344C100.328 16.7387 100.104 17.1013 99.7949 17.432C99.4856 17.752 99.0802 18.008 98.5789 18.2C98.0882 18.3813 97.4962 18.472 96.8029 18.472H94.2269V23H92.6269V11.8H96.7869ZM97.8109 17.928L100.899 23H99.0909L96.1149 17.928H97.8109ZM111.211 11.8H112.891L108.683 23H106.843L102.651 11.8H104.347L107.771 21.352L111.211 11.8ZM115.293 11.8H116.893V23H115.293V11.8ZM119.494 17.4C119.494 16.5573 119.638 15.7893 119.926 15.096C120.214 14.392 120.614 13.7893 121.126 13.288C121.638 12.776 122.23 12.3813 122.902 12.104C123.584 11.8267 124.32 11.688 125.11 11.688C126.23 11.688 127.227 11.9493 128.102 12.472C128.987 12.9947 129.659 13.7467 130.118 14.728L128.838 15.192C128.582 14.6907 128.256 14.2853 127.862 13.976C127.467 13.6667 127.035 13.4373 126.566 13.288C126.096 13.1387 125.622 13.064 125.142 13.064C124.384 13.064 123.696 13.24 123.078 13.592C122.47 13.944 121.99 14.4453 121.638 15.096C121.296 15.7467 121.126 16.5147 121.126 17.4C121.126 18.2747 121.296 19.0373 121.638 19.688C121.99 20.3387 122.47 20.8453 123.078 21.208C123.696 21.56 124.384 21.736 125.142 21.736C125.632 21.736 126.118 21.656 126.598 21.496C127.078 21.336 127.526 21.08 127.942 20.728C128.358 20.3653 128.699 19.896 128.966 19.32L130.246 19.768C129.766 20.8987 129.078 21.7413 128.182 22.296C127.286 22.84 126.262 23.112 125.11 23.112C124.32 23.112 123.584 22.9733 122.902 22.696C122.23 22.4187 121.638 22.024 121.126 21.512C120.614 21 120.214 20.3973 119.926 19.704C119.638 19 119.494 18.232 119.494 17.4ZM140.524 13.144H134.636V16.648H139.052V17.992H134.636V21.656H140.524V23H133.036V11.8H140.524V13.144ZM144.399 20.04C144.463 20.3387 144.591 20.616 144.783 20.872C144.986 21.128 145.258 21.336 145.599 21.496C145.941 21.656 146.362 21.736 146.863 21.736C147.61 21.736 148.159 21.5653 148.511 21.224C148.874 20.872 149.055 20.4613 149.055 19.992C149.055 19.608 148.943 19.2933 148.719 19.048C148.506 18.792 148.207 18.5787 147.823 18.408C147.45 18.2267 147.018 18.0667 146.527 17.928C146.101 17.8 145.679 17.6667 145.263 17.528C144.858 17.3787 144.49 17.1973 144.159 16.984C143.829 16.76 143.567 16.4773 143.375 16.136C143.183 15.784 143.087 15.3467 143.087 14.824C143.087 14.1733 143.242 13.6133 143.551 13.144C143.861 12.6747 144.293 12.3173 144.847 12.072C145.413 11.816 146.063 11.688 146.799 11.688C147.418 11.688 147.973 11.7787 148.463 11.96C148.954 12.1307 149.365 12.3813 149.695 12.712C150.037 13.032 150.287 13.4213 150.447 13.88L148.991 14.408C148.927 14.1733 148.794 13.9547 148.591 13.752C148.389 13.5387 148.133 13.368 147.823 13.24C147.514 13.112 147.167 13.048 146.783 13.048C146.389 13.0373 146.031 13.1013 145.711 13.24C145.402 13.368 145.151 13.5547 144.959 13.8C144.778 14.0453 144.687 14.3387 144.687 14.68C144.687 15.0533 144.794 15.3467 145.007 15.56C145.221 15.7733 145.503 15.9493 145.855 16.088C146.218 16.2267 146.613 16.36 147.039 16.488C147.487 16.6267 147.925 16.776 148.351 16.936C148.778 17.096 149.162 17.2987 149.503 17.544C149.855 17.7893 150.138 18.0987 150.351 18.472C150.565 18.8347 150.671 19.2933 150.671 19.848C150.671 20.4453 150.533 20.9893 150.255 21.48C149.978 21.9707 149.557 22.3653 148.991 22.664C148.437 22.9627 147.738 23.112 146.895 23.112C146.202 23.112 145.578 23.0053 145.023 22.792C144.469 22.5787 144.01 22.2853 143.647 21.912C143.295 21.528 143.061 21.0853 142.943 20.584L144.399 20.04ZM157.95 11.8H166.542V13.144H163.054V23H161.454V13.144H157.95V11.8ZM176.381 11.8H178.157L174.013 18.84V23H172.429V18.856L168.285 11.8H170.061L173.213 17.384L176.381 11.8ZM184.728 17.128C185.251 17.128 185.677 17.048 186.008 16.888C186.349 16.7173 186.6 16.4827 186.76 16.184C186.92 15.8853 187 15.5387 187 15.144C187 14.5147 186.819 14.024 186.456 13.672C186.093 13.32 185.517 13.144 184.728 13.144H182.152V17.128H184.728ZM188.6 15.144C188.6 15.5493 188.531 15.9547 188.392 16.36C188.253 16.7547 188.029 17.112 187.72 17.432C187.411 17.752 187.005 18.008 186.504 18.2C186.013 18.3813 185.421 18.472 184.728 18.472H182.152V23H180.552V11.8H184.728C185.603 11.8 186.323 11.9547 186.888 12.264C187.464 12.5627 187.891 12.968 188.168 13.48C188.456 13.9813 188.6 14.536 188.6 15.144ZM198.693 13.144H192.805V16.648H197.221V17.992H192.805V21.656H198.693V23H191.205V11.8H198.693V13.144ZM202.568 20.04C202.632 20.3387 202.76 20.616 202.952 20.872C203.155 21.128 203.427 21.336 203.768 21.496C204.109 21.656 204.531 21.736 205.032 21.736C205.779 21.736 206.328 21.5653 206.68 21.224C207.043 20.872 207.224 20.4613 207.224 19.992C207.224 19.608 207.112 19.2933 206.888 19.048C206.675 18.792 206.376 18.5787 205.992 18.408C205.619 18.2267 205.187 18.0667 204.696 17.928C204.269 17.8 203.848 17.6667 203.432 17.528C203.027 17.3787 202.659 17.1973 202.328 16.984C201.997 16.76 201.736 16.4773 201.544 16.136C201.352 15.784 201.256 15.3467 201.256 14.824C201.256 14.1733 201.411 13.6133 201.72 13.144C202.029 12.6747 202.461 12.3173 203.016 12.072C203.581 11.816 204.232 11.688 204.968 11.688C205.587 11.688 206.141 11.7787 206.632 11.96C207.123 12.1307 207.533 12.3813 207.864 12.712C208.205 13.032 208.456 13.4213 208.616 13.88L207.16 14.408C207.096 14.1733 206.963 13.9547 206.76 13.752C206.557 13.5387 206.301 13.368 205.992 13.24C205.683 13.112 205.336 13.048 204.952 13.048C204.557 13.0373 204.2 13.1013 203.88 13.24C203.571 13.368 203.32 13.5547 203.128 13.8C202.947 14.0453 202.856 14.3387 202.856 14.68C202.856 15.0533 202.963 15.3467 203.176 15.56C203.389 15.7733 203.672 15.9493 204.024 16.088C204.387 16.2267 204.781 16.36 205.208 16.488C205.656 16.6267 206.093 16.776 206.52 16.936C206.947 17.096 207.331 17.2987 207.672 17.544C208.024 17.7893 208.307 18.0987 208.52 18.472C208.733 18.8347 208.84 19.2933 208.84 19.848C208.84 20.4453 208.701 20.9893 208.424 21.48C208.147 21.9707 207.725 22.3653 207.16 22.664C206.605 22.9627 205.907 23.112 205.064 23.112C204.371 23.112 203.747 23.0053 203.192 22.792C202.637 22.5787 202.179 22.2853 201.816 21.912C201.464 21.528 201.229 21.0853 201.112 20.584L202.568 20.04Z" fill="#EFEFF3"/>
</svg>
