<svg width="120" height="41" viewBox="0 0 120 41" fill="none" xmlns="http://www.w3.org/2000/svg">
<path d="M51.0659 21.0259C51.0659 26.7168 46.6586 30.9104 41.2498 30.9104C35.8409 30.9104 31.4336 26.7168 31.4336 21.0259C31.4336 15.2948 35.8409 11.1413 41.2498 11.1413C46.6586 11.1413 51.0659 15.2948 51.0659 21.0259ZM46.7689 21.0259C46.7689 17.4696 44.2145 15.0363 41.2498 15.0363C38.2851 15.0363 35.7307 17.4696 35.7307 21.0259C35.7307 24.5465 38.2851 27.0154 41.2498 27.0154C44.2145 27.0154 46.7689 24.5421 46.7689 21.0259Z" fill="white"/>
<path d="M72.2427 21.0259C72.2427 26.7168 67.8354 30.9104 62.4265 30.9104C57.0177 30.9104 52.6104 26.7168 52.6104 21.0259C52.6104 15.2992 57.0177 11.1413 62.4265 11.1413C67.8354 11.1413 72.2427 15.2948 72.2427 21.0259ZM67.9456 21.0259C67.9456 17.4696 65.3912 15.0363 62.4265 15.0363C59.4618 15.0363 56.9074 17.4696 56.9074 21.0259C56.9074 24.5465 59.4618 27.0154 62.4265 27.0154C65.3912 27.0154 67.9456 24.5421 67.9456 21.0259Z" fill="white"/>
<path d="M92.5371 11.7385V29.4843C92.5371 36.7841 88.2754 39.7655 83.2371 39.7655C78.4945 39.7655 75.6401 36.5613 74.5636 33.9409L78.3048 32.3677C78.971 33.9765 80.6033 35.875 83.2327 35.875C86.4577 35.875 88.4563 33.8651 88.4563 30.0815V28.6599H88.3063C87.3445 29.8587 85.4916 30.906 83.1533 30.906C78.2607 30.906 73.7783 26.601 73.7783 21.0615C73.7783 15.4819 78.2607 11.1413 83.1533 11.1413C85.4871 11.1413 87.3401 12.1886 88.3063 13.3517H88.4563V11.7429H92.5371V11.7385ZM88.7607 21.0615C88.7607 17.581 86.4621 15.0363 83.5371 15.0363C80.5724 15.0363 78.0886 17.581 78.0886 21.0615C78.0886 24.5064 80.5724 27.0154 83.5371 27.0154C86.4621 27.0154 88.7607 24.5064 88.7607 21.0615Z" fill="white"/>
<path d="M99.2644 1.33698V30.3044H95.0732V1.33698H99.2644Z" fill="white"/>
<path d="M115.597 24.2791L118.933 26.5252C117.856 28.134 115.262 30.906 110.78 30.906C105.221 30.906 101.069 26.5653 101.069 21.0214C101.069 15.1433 105.256 11.1368 110.299 11.1368C115.377 11.1368 117.861 15.219 118.672 17.425L119.118 18.548L106.037 24.0206C107.038 26.0038 108.596 27.0154 110.78 27.0154C112.968 27.0154 114.486 25.928 115.597 24.2791ZM105.331 20.7228L114.075 17.0551C113.594 15.8206 112.147 14.9605 110.444 14.9605C108.261 14.9605 105.221 16.908 105.331 20.7228Z" fill="white"/>
<path d="M15.5695 18.4545V14.2609H29.5592C29.6959 14.9918 29.7665 15.8563 29.7665 16.7922C29.7665 19.9385 28.9151 23.829 26.1709 26.601C23.5018 29.4086 20.0915 30.906 15.5739 30.906C7.20036 30.906 0.15918 24.0162 0.15918 15.5577C0.15918 7.09925 7.20036 0.209473 15.5739 0.209473C20.2062 0.209473 23.5062 2.04556 25.9857 4.43871L23.0562 7.39784C21.2783 5.71328 18.8695 4.40306 15.5695 4.40306C9.45477 4.40306 4.67242 9.38099 4.67242 15.5577C4.67242 21.7345 9.45477 26.7124 15.5695 26.7124C19.5357 26.7124 21.7945 25.1036 23.2415 23.6419C24.4151 22.4564 25.1871 20.763 25.4915 18.45L15.5695 18.4545Z" fill="white"/>
</svg>
