<svg width="141" height="40" viewBox="0 0 141 40" fill="none" xmlns="http://www.w3.org/2000/svg">
<path d="M30.7617 0C31.6055 0 32.3438 0.175781 33.0117 0.5625C35.2617 1.82812 36.0703 5.09766 35.332 9.73828C35.1914 10.5469 35.0156 11.3906 34.8047 12.2344C35.6484 12.4805 36.457 12.7617 37.2305 13.043C41.625 14.7305 44.0156 17.0508 44.0156 19.6523C44.0156 22.2539 41.625 24.5742 37.2305 26.2617C36.457 26.5781 35.6484 26.8242 34.8047 27.0703C35.0156 27.9141 35.1914 28.7578 35.332 29.5664C36.0703 34.1719 35.2617 37.4414 33.0117 38.7422C32.3438 39.1289 31.6055 39.3047 30.7617 39.3047C28.3008 39.3047 25.1719 37.4766 22.0078 34.418C18.8789 37.4766 15.75 39.3047 13.2539 39.3047C12.4102 39.3047 11.6719 39.1289 11.0039 38.7422C8.75391 37.4766 7.94531 34.207 8.68359 29.5664C8.82422 28.7578 9 27.9141 9.21094 27.0703C8.36719 26.8242 7.55859 26.543 6.78516 26.2617C2.42578 24.5742 0 22.2539 0 19.6523C3.28638e-07 17.0508 2.39063 14.7305 6.78516 13.043C7.55859 12.7266 8.36719 12.4805 9.21094 12.2344C9 11.3906 8.82422 10.5469 8.68359 9.73828C7.94531 5.13281 8.75391 1.86328 11.0039 0.5625C11.6719 0.175781 12.4102 0 13.2539 0C15.7148 5.3132e-07 18.8438 1.82813 22.0078 4.88672C25.1719 1.82813 28.3008 0 30.7617 0ZM11.1445 27.5273C10.9336 28.3359 10.7578 29.1094 10.6523 29.8477C10.0547 33.5391 10.5469 36.1406 11.9883 36.9844C12.3398 37.1953 12.7617 37.3008 13.2188 37.3008C15.3633 37.3008 18 35.543 20.6016 32.9766C19.3711 31.6055 18.1406 30.0937 16.9453 28.4062C14.9062 28.2305 12.9727 27.9492 11.1445 27.5273ZM32.8711 27.5273C31.043 27.9141 29.1094 28.2305 27.0703 28.4062C25.875 30.0937 24.6445 31.6406 23.4141 32.9766C26.0508 35.5781 28.6875 37.3008 30.7969 37.3008C31.2539 37.3008 31.6758 37.1953 32.0273 36.9844C33.4687 36.1406 33.9609 33.5391 33.3633 29.8477C33.2227 29.1094 33.082 28.3359 32.8711 27.5273ZM80.2676 13.9004C81.8996 13.9004 83.352 14.2605 84.624 14.9805C85.9199 15.7005 86.9275 16.6968 87.6475 17.9688C88.3674 19.2407 88.7042 20.6923 88.6562 22.3242C88.6562 22.5882 88.6441 22.8644 88.6201 23.1523C88.5961 23.4402 88.5718 23.7521 88.5479 24.0879H74.6162C74.6642 25.2157 74.9395 26.2122 75.4434 27.0762C75.9473 27.9401 76.6079 28.6239 77.4238 29.1279C78.2638 29.6079 79.2117 29.8486 80.2676 29.8486C81.6595 29.8486 82.8359 29.5846 83.7959 29.0566C84.7799 28.5286 85.4879 27.7721 85.9199 26.7881L88.2598 27.7246C87.5398 29.2365 86.4959 30.4008 85.1279 31.2168C83.76 32.0088 82.1638 32.4043 80.3398 32.4043C78.6599 32.4043 77.1598 31.9966 75.8398 31.1807C74.5438 30.3647 73.5243 29.248 72.7803 27.832C72.0363 26.4161 71.6641 24.7965 71.6641 22.9727C71.6641 21.2207 72.0363 19.66 72.7803 18.292C73.5243 16.9242 74.544 15.8558 75.8398 15.0879C77.1357 14.296 78.6118 13.9004 80.2676 13.9004ZM100.084 13.9004C102.22 13.9004 103.876 14.4527 105.052 15.5566C106.252 16.6366 106.853 18.1124 106.853 19.9844V32.1523H104.368L104.152 28.9121C103.648 30.0161 102.904 30.8799 101.92 31.5039C100.936 32.1039 99.6878 32.4043 98.1758 32.4043C96.8799 32.4043 95.7762 32.2 94.8643 31.792C93.9523 31.384 93.2442 30.8084 92.7402 30.0645C92.2602 29.2965 92.0205 28.3963 92.0205 27.3643C92.0205 25.8523 92.584 24.6162 93.7119 23.6562C94.8399 22.6723 96.4724 22.0724 98.6084 21.8564L104.152 21.2441V19.8047C104.152 18.7967 103.78 17.9926 103.036 17.3926C102.292 16.7686 101.284 16.4561 100.012 16.4561C98.7639 16.4561 97.7198 16.7444 96.8799 17.3203C96.064 17.8963 95.5005 18.7248 95.1885 19.8047L92.7402 18.9404C93.2202 17.3564 94.0962 16.1204 95.3682 15.2324C96.6641 14.3444 98.236 13.9004 100.084 13.9004ZM119.788 13.9004C121.636 13.9005 123.256 14.3324 124.647 15.1963C126.039 16.0363 127.048 17.2126 127.672 18.7246L125.188 19.5879C124.827 18.6282 124.168 17.8722 123.208 17.3203C122.272 16.7443 121.18 16.4561 119.932 16.4561C118.708 16.4561 117.64 16.7322 116.728 17.2842C115.84 17.8361 115.144 18.6162 114.64 19.624C114.16 20.632 113.92 21.8205 113.92 23.1885C113.92 25.2044 114.46 26.8249 115.54 28.0488C116.62 29.2485 118.06 29.8486 119.859 29.8486C121.083 29.8486 122.176 29.5725 123.136 29.0205C124.096 28.4685 124.804 27.7241 125.26 26.7881L127.708 27.6523C127.06 29.1403 126.039 30.3045 124.647 31.1445C123.256 31.9844 121.636 32.4042 119.788 32.4043C118.036 32.4043 116.5 32.02 115.18 31.252C113.86 30.4841 112.828 29.4165 112.084 28.0488C111.364 26.6569 111.004 25.0485 111.004 23.2246C111.004 21.3766 111.364 19.7563 112.084 18.3643C112.828 16.9484 113.86 15.8559 115.18 15.0879C116.5 14.296 118.036 13.9004 119.788 13.9004ZM135.272 14.1523H140.061V16.6719H135.272V26.3564C135.272 27.4603 135.5 28.2646 135.956 28.7686C136.436 29.2726 137.037 29.572 137.757 29.668C138.501 29.7639 139.269 29.764 140.061 29.668V32.0088C139.125 32.2248 138.2 32.2845 137.288 32.1885C136.4 32.0924 135.596 31.8284 134.876 31.3965C134.18 30.9405 133.617 30.3042 133.185 29.4883C132.777 28.6723 132.572 27.6284 132.572 26.3564V16.6719H129.872V14.1523H132.572V9.1123H135.272V14.1523ZM59.4238 6.95215C61.3918 6.95215 63 7.28796 64.248 7.95996C65.52 8.63193 66.4678 9.53223 67.0918 10.6602C67.7158 11.7641 68.0273 13.0123 68.0273 14.4043C68.0273 15.3882 67.8594 16.324 67.5234 17.2119C67.2115 18.0998 66.7076 18.8919 66.0117 19.5879C65.3157 20.2839 64.4277 20.8361 63.3477 21.2441C62.9391 21.3985 62.4996 21.5232 62.0293 21.6191L68.4961 32.1523H65.2197L59.0615 21.8564H53.4482V32.1523H50.5674V6.95215H59.4238ZM24.4336 28.6172C23.625 28.6523 22.8164 28.6875 22.0078 28.6875C21.1992 28.6875 20.3906 28.6523 19.582 28.6172C20.3555 29.6367 21.1641 30.6211 22.0078 31.5352C22.8516 30.6211 23.6602 29.6367 24.4336 28.6172ZM98.5723 24.1963C97.3723 24.3403 96.4599 24.6761 95.8359 25.2041C95.2119 25.7081 94.9004 26.3807 94.9004 27.2207C94.9005 28.0604 95.2 28.7324 95.7998 29.2363C96.4238 29.7403 97.312 29.9921 98.4639 29.9922C99.7839 29.9922 100.864 29.7282 101.704 29.2002C102.544 28.6722 103.156 27.9642 103.54 27.0762C103.948 26.1642 104.152 25.18 104.152 24.124V23.5488L98.5723 24.1963ZM22.043 12.6211C20.707 12.6211 19.4062 12.6563 18.1055 12.7617C17.332 13.8867 16.5937 15.0117 15.9609 16.1367C15.293 17.2969 14.6602 18.4922 14.0977 19.6523C14.6602 20.8125 15.293 22.0078 15.9609 23.168C16.5937 24.293 17.2969 25.418 18.0703 26.543C19.3359 26.6484 20.6367 26.6836 22.0078 26.6836C23.3437 26.6836 24.6445 26.6484 25.9453 26.543C26.7187 25.418 27.457 24.293 28.0898 23.168C28.7578 21.9727 29.3555 20.8125 29.9531 19.6523C29.3906 18.4922 28.7578 17.2969 28.0898 16.1367C27.457 15.0117 26.7539 13.8867 25.9805 12.7617C24.7148 12.6563 23.4141 12.6211 22.043 12.6211ZM31.0078 22.0078C30.6211 22.7109 30.2344 23.4492 29.8125 24.1875C29.4258 24.9258 28.9687 25.6289 28.5469 26.2969C29.8828 26.1211 31.1484 25.9102 32.3438 25.6289C31.957 24.4336 31.5352 23.2383 31.0078 22.0078ZM13.0078 21.9727C12.4805 23.2031 12.0586 24.4336 11.6719 25.5938C12.8672 25.875 14.1328 26.0859 15.4688 26.2617C15.0469 25.5586 14.625 24.8906 14.2031 24.1172C13.7812 23.4141 13.3945 22.6758 13.0078 21.9727ZM9.73828 14.2031C8.96484 14.4141 8.19141 14.6602 7.48828 14.9414C3.97266 16.2422 1.96875 18 1.96875 19.6523C1.96875 21.6211 4.88672 23.7305 9.73828 25.1367C10.2656 23.3789 11.0039 21.5508 11.8477 19.6875C11.0039 17.8242 10.3008 15.9609 9.73828 14.2031ZM34.2773 14.168C33.75 15.9258 33.0117 17.7539 32.168 19.6172C33.0117 21.4805 33.7148 23.3438 34.2773 25.1016C35.0508 24.8906 35.8242 24.6445 36.5273 24.3633C40.0078 23.0625 42.0469 21.3047 42.0469 19.6523C42.0469 17.6836 39.1289 15.5742 34.2773 14.168ZM22.0078 15.6445C24.2213 15.6445 26.0156 17.4389 26.0156 19.6523C26.0156 21.8658 24.2213 23.6602 22.0078 23.6602C19.7944 23.6602 18 21.8658 18 19.6523C18 17.4389 19.7944 15.6445 22.0078 15.6445ZM80.1602 16.4561C79.2002 16.4561 78.3242 16.6847 77.5322 17.1406C76.7402 17.5966 76.0798 18.2328 75.5518 19.0488C75.0479 19.8407 74.7474 20.7403 74.6514 21.748H85.7041C85.728 20.7162 85.4994 19.8046 85.0195 19.0127C84.5636 18.2208 83.916 17.5966 83.0762 17.1406C82.2363 16.6847 81.264 16.4561 80.1602 16.4561ZM53.4482 19.3359H59.46C60.7799 19.3359 61.8481 19.1326 62.6641 18.7246C63.504 18.3166 64.116 17.7401 64.5 16.9961C64.9079 16.2522 65.1113 15.3882 65.1113 14.4043C65.1113 12.8925 64.668 11.6926 63.7803 10.8047C62.8923 9.91669 61.4398 9.47266 59.4238 9.47266H53.4482V19.3359ZM29.8125 15.1523C30.2344 15.8555 30.6211 16.5938 31.0078 17.332C31.5352 16.1016 31.957 14.8711 32.3438 13.7109C31.1484 13.4297 29.8828 13.2187 28.5469 13.043L29.8125 15.1523ZM15.4688 13.0078C14.1328 13.1836 12.8672 13.3945 11.6719 13.6758C12.0586 14.8711 12.4805 16.0664 13.0078 17.2969C13.3945 16.5938 13.7812 15.8555 14.2031 15.1172C14.5898 14.3789 15.0469 13.6758 15.4688 13.0078ZM13.2188 2.00391C12.7617 2.00391 12.3398 2.10938 11.9883 2.32031C10.5469 3.16406 10.0547 5.76562 10.6523 9.45703C10.793 10.1953 10.9336 10.9688 11.1445 11.7773C12.9727 11.3906 14.9063 11.0742 16.9453 10.8984C18.1406 9.21094 19.3711 7.66406 20.6016 6.32812C17.9648 3.72656 15.3281 2.00391 13.2188 2.00391ZM30.7969 2.00391C28.6523 2.00391 26.0156 3.76172 23.4141 6.32812C24.6445 7.69922 25.875 9.21094 27.0703 10.8984C29.1094 11.0742 31.043 11.3555 32.8711 11.7773C33.082 10.9688 33.2578 10.1953 33.3633 9.45703C33.9609 5.76563 33.4687 3.16406 32.0273 2.32031C31.6758 2.10938 31.2539 2.00391 30.7969 2.00391ZM22.0078 7.76953C21.1641 8.68359 20.3555 9.66797 19.582 10.6875C20.3906 10.6523 21.1992 10.6172 22.0078 10.6172C22.8164 10.6172 23.625 10.6523 24.4336 10.6875C23.6602 9.66797 22.8516 8.68359 22.0078 7.76953Z" fill="white"/>
</svg>
