<svg width="68" height="41" viewBox="0 0 68 41" fill="none" xmlns="http://www.w3.org/2000/svg">
<g clip-path="url(#clip0_907_2)">
<path d="M19.3267 14.9582C19.3267 15.7918 19.4161 16.4676 19.5727 16.9632C19.7517 17.4588 19.9753 17.9995 20.2885 18.5852C20.4004 18.7654 20.4451 18.9456 20.4451 19.1033C20.4451 19.3286 20.3109 19.5538 20.0201 19.7791L18.6109 20.7253C18.4096 20.8604 18.2082 20.928 18.0293 20.928C17.8056 20.928 17.5819 20.8154 17.3582 20.6126C17.0451 20.2747 16.7767 19.9143 16.553 19.5538C16.3293 19.1709 16.1056 18.7429 15.8596 18.2247C14.1148 20.2973 11.9227 21.3335 9.28324 21.3335C7.4043 21.3335 5.90561 20.7929 4.80956 19.7115C3.71351 18.6302 3.1543 17.1885 3.1543 15.3863C3.1543 13.4714 3.82535 11.917 5.18982 10.7456C6.5543 9.57418 8.36614 8.98846 10.6701 8.98846C11.4306 8.98846 12.2135 9.05604 13.0411 9.16868C13.8688 9.28132 14.7188 9.46154 15.6135 9.66429V8.01978C15.6135 6.30769 15.2556 5.11374 14.5622 4.41538C13.8464 3.71703 12.6385 3.37912 10.9161 3.37912C10.1332 3.37912 9.32798 3.46923 8.50035 3.67198C7.67272 3.87473 6.86746 4.12253 6.08456 4.43791C5.72667 4.5956 5.45824 4.68571 5.30167 4.73077C5.14509 4.77582 5.03324 4.79835 4.94377 4.79835C4.63061 4.79835 4.47403 4.57308 4.47403 4.1V2.99615C4.47403 2.63571 4.51877 2.36538 4.63061 2.20769C4.74245 2.05 4.94377 1.89231 5.25693 1.73462C6.03982 1.32912 6.9793 0.991209 8.07535 0.72088C9.1714 0.428022 10.3346 0.292858 11.5648 0.292858C14.2267 0.292858 16.1727 0.901099 17.4254 2.11758C18.6556 3.33407 19.2819 5.18132 19.2819 7.65934V14.9582H19.3267ZM10.2451 18.3824C10.9832 18.3824 11.7438 18.2473 12.549 17.9769C13.3543 17.7066 14.0701 17.211 14.674 16.5352C15.0319 16.1071 15.3004 15.6341 15.4346 15.0934C15.5688 14.5527 15.6582 13.8995 15.6582 13.1335V12.1874C15.0096 12.0297 14.3161 11.8945 13.6003 11.8044C12.8846 11.7143 12.1911 11.6692 11.4977 11.6692C9.99903 11.6692 8.90298 11.9621 8.16482 12.5703C7.42667 13.1786 7.06877 14.0346 7.06877 15.161C7.06877 16.2198 7.33719 17.0082 7.8964 17.5489C8.43324 18.1121 9.21614 18.3824 10.2451 18.3824ZM28.2069 20.8154C27.8043 20.8154 27.5359 20.7478 27.3569 20.5901C27.178 20.4549 27.0214 20.1396 26.8872 19.7115L21.6306 2.2978C21.4964 1.84725 21.4293 1.5544 21.4293 1.3967C21.4293 1.03626 21.6082 0.833517 21.9661 0.833517H24.1582C24.5832 0.833517 24.874 0.901099 25.0306 1.05879C25.2096 1.19396 25.3438 1.50934 25.478 1.93736L29.2359 16.8506L32.7254 1.93736C32.8372 1.48681 32.9714 1.19396 33.1503 1.05879C33.3293 0.923627 33.6425 0.833517 34.0451 0.833517H35.8346C36.2596 0.833517 36.5503 0.901099 36.7293 1.05879C36.9082 1.19396 37.0648 1.50934 37.1543 1.93736L40.6885 17.0308L44.5582 1.93736C44.6925 1.48681 44.849 1.19396 45.0056 1.05879C45.1846 0.923627 45.4754 0.833517 45.878 0.833517H47.9582C48.3161 0.833517 48.5175 1.01374 48.5175 1.3967C48.5175 1.50934 48.4951 1.62198 48.4727 1.75714C48.4503 1.89231 48.4056 2.07253 48.3161 2.32033L42.9253 19.7341C42.7911 20.1846 42.6346 20.4775 42.4556 20.6126C42.2767 20.7478 41.9859 20.8379 41.6056 20.8379H39.6819C39.2569 20.8379 38.9661 20.7703 38.7872 20.6126C38.6082 20.4549 38.4517 20.1621 38.3622 19.7115L34.8951 5.18132L31.4504 19.689C31.3385 20.1396 31.2043 20.4324 31.0254 20.5901C30.8464 20.7478 30.5332 20.8154 30.1306 20.8154H28.2069ZM56.9504 21.4236C55.7872 21.4236 54.624 21.2885 53.5056 21.0181C52.3872 20.7478 51.5148 20.4549 50.9332 20.117C50.5753 19.9143 50.3293 19.689 50.2398 19.4863C50.1504 19.2835 50.1056 19.0582 50.1056 18.8555V17.7066C50.1056 17.2335 50.2846 17.0082 50.6201 17.0082C50.7543 17.0082 50.8885 17.0308 51.0227 17.0758C51.1569 17.1209 51.3582 17.211 51.5819 17.3011C52.3425 17.639 53.1701 17.9093 54.0425 18.0896C54.9372 18.2698 55.8096 18.3599 56.7043 18.3599C58.1135 18.3599 59.2096 18.1121 59.9701 17.6165C60.7306 17.1209 61.1332 16.4 61.1332 15.4764C61.1332 14.8456 60.9319 14.3275 60.5293 13.8995C60.1267 13.4714 59.3661 13.0885 58.2701 12.728L55.0267 11.7143C53.3938 11.1962 52.1859 10.4302 51.4477 9.41648C50.7096 8.42527 50.3293 7.32143 50.3293 6.15C50.3293 5.20385 50.5306 4.37033 50.9332 3.64945C51.3359 2.92857 51.8727 2.2978 52.5438 1.8022C53.2148 1.28407 53.9754 0.901099 54.8701 0.63077C55.7648 0.36044 56.7043 0.247803 57.6885 0.247803C58.1806 0.247803 58.6951 0.27033 59.1872 0.337913C59.7017 0.405495 60.1714 0.495605 60.6411 0.585715C61.0885 0.698352 61.5135 0.810989 61.9161 0.946154C62.3188 1.08132 62.6319 1.21648 62.8556 1.35165C63.1688 1.53187 63.3925 1.71209 63.5267 1.91484C63.6609 2.09506 63.728 2.34286 63.728 2.65824V3.71703C63.728 4.19011 63.549 4.43791 63.2135 4.43791C63.0346 4.43791 62.7438 4.3478 62.3635 4.16758C61.0885 3.58187 59.6569 3.28901 58.0688 3.28901C56.7938 3.28901 55.7872 3.49176 55.0938 3.91978C54.4004 4.3478 54.0425 5.0011 54.0425 5.92473C54.0425 6.55549 54.2661 7.09615 54.7135 7.52418C55.1609 7.9522 55.9885 8.38022 57.174 8.76319L60.3503 9.77692C61.9609 10.2951 63.124 11.0159 63.8175 11.9396C64.5109 12.8632 64.8464 13.922 64.8464 15.0934C64.8464 16.0621 64.6451 16.9407 64.2648 17.7066C63.8622 18.4725 63.3254 19.1484 62.6319 19.689C61.9385 20.2522 61.1109 20.6577 60.149 20.9505C59.1425 21.2659 58.0911 21.4236 56.9504 21.4236Z" fill="white"/>
<path fill-rule="evenodd" clip-rule="evenodd" d="M61.1776 32.3719C53.8184 37.8461 43.1263 40.7521 33.9328 40.7521C21.0486 40.7521 9.43942 35.9538 0.670998 27.9791C-0.022423 27.3483 0.603893 26.4923 1.43152 26.9879C10.9157 32.5296 22.6144 35.8862 34.7157 35.8862C42.8802 35.8862 51.85 34.1741 60.1039 30.6598C61.3342 30.0967 62.3855 31.4708 61.1776 32.3719Z" fill="white"/>
<path fill-rule="evenodd" clip-rule="evenodd" d="M64.2422 28.8577C63.3027 27.6412 58.0238 28.272 55.6304 28.5648C54.9146 28.6549 54.8027 28.0242 55.4514 27.5511C59.6567 24.5774 66.5685 25.4335 67.3738 26.4247C68.1791 27.4384 67.1501 34.3994 63.2133 37.7335C62.6093 38.2516 62.0277 37.9813 62.2962 37.3055C63.1909 35.0753 65.1817 30.0516 64.2422 28.8577Z" fill="white"/>
</g>
<defs>
<clipPath id="clip0_907_2">
<rect width="68" height="41" fill="white"/>
</clipPath>
</defs>
</svg>
