<svg width="163" height="32" viewBox="0 0 163 32" fill="none" xmlns="http://www.w3.org/2000/svg">
<path d="M1.43 11.948C1.482 10.7867 1.77667 9.816 2.314 9.036C2.86867 8.23867 3.60533 7.64067 4.524 7.242C5.46 6.826 6.53467 6.618 7.748 6.618C9.01333 6.618 10.088 6.852 10.972 7.32C11.856 7.788 12.532 8.412 13 9.192C13.468 9.972 13.702 10.83 13.702 11.766C13.702 12.4767 13.5547 13.1007 13.26 13.638C12.9827 14.158 12.6187 14.5913 12.168 14.938C11.7173 15.2673 11.2667 15.5187 10.816 15.692V15.796C11.4573 15.9867 12.0207 16.264 12.506 16.628C12.9913 16.992 13.364 17.4513 13.624 18.006C13.9013 18.5607 14.04 19.2367 14.04 20.034C14.04 21.0567 13.7973 21.958 13.312 22.738C12.8267 23.5007 12.1247 24.0987 11.206 24.532C10.3047 24.9653 9.19533 25.182 7.878 25.182C6.578 25.182 5.434 24.9913 4.446 24.61C3.458 24.2287 2.678 23.622 2.106 22.79C1.534 21.9407 1.222 20.8227 1.17 19.436H4.602C4.63667 20.372 4.90533 21.0653 5.408 21.516C5.91067 21.9667 6.708 22.192 7.8 22.192C8.424 22.192 8.93533 22.0967 9.334 21.906C9.73267 21.7153 10.0273 21.438 10.218 21.074C10.4087 20.71 10.504 20.268 10.504 19.748C10.504 18.7427 10.1747 18.0753 9.516 17.746C8.87467 17.4167 7.86067 17.252 6.474 17.252H5.746V14.444H6.5C7.228 14.4267 7.86933 14.3573 8.424 14.236C8.97867 14.0973 9.40333 13.872 9.698 13.56C10.01 13.2307 10.166 12.78 10.166 12.208C10.166 11.4627 9.958 10.8473 9.542 10.362C9.126 9.85933 8.49333 9.608 7.644 9.608C7.02 9.608 6.51733 9.72067 6.136 9.946C5.75467 10.1713 5.45133 10.4573 5.226 10.804C5.018 11.1507 4.89667 11.532 4.862 11.948H1.43ZM16.8415 15.9C16.8415 14.5307 16.9542 13.2827 17.1795 12.156C17.4048 11.012 17.7862 10.0327 18.3235 9.218C18.8608 8.386 19.5802 7.74467 20.4815 7.294C21.3828 6.84333 22.4922 6.618 23.8095 6.618C25.1615 6.618 26.2795 6.84333 27.1635 7.294C28.0648 7.74467 28.7755 8.386 29.2955 9.218C29.8328 10.0327 30.2142 11.012 30.4395 12.156C30.6822 13.2827 30.8035 14.5307 30.8035 15.9C30.8035 17.2867 30.6822 18.552 30.4395 19.696C30.2142 20.84 29.8328 21.8193 29.2955 22.634C28.7755 23.4487 28.0648 24.0813 27.1635 24.532C26.2795 24.9653 25.1615 25.182 23.8095 25.182C22.4922 25.182 21.3828 24.9653 20.4815 24.532C19.5802 24.0813 18.8608 23.4487 18.3235 22.634C17.7862 21.8193 17.4048 20.84 17.1795 19.696C16.9542 18.552 16.8415 17.2867 16.8415 15.9ZM27.2155 15.9C27.2155 15.0853 27.1808 14.3053 27.1115 13.56C27.0595 12.7973 26.9208 12.1213 26.6955 11.532C26.4702 10.9253 26.1322 10.4573 25.6815 10.128C25.2308 9.78133 24.6068 9.608 23.8095 9.608C23.0295 9.608 22.4142 9.78133 21.9635 10.128C21.5128 10.4573 21.1748 10.9253 20.9495 11.532C20.7242 12.1213 20.5768 12.7973 20.5075 13.56C20.4555 14.3053 20.4295 15.0853 20.4295 15.9C20.4295 16.7667 20.4555 17.5813 20.5075 18.344C20.5768 19.0893 20.7242 19.7567 20.9495 20.346C21.1748 20.918 21.5128 21.3687 21.9635 21.698C22.4142 22.0273 23.0295 22.192 23.8095 22.192C24.6068 22.192 25.2308 22.0273 25.6815 21.698C26.1322 21.3687 26.4702 20.918 26.6955 20.346C26.9208 19.7567 27.0595 19.0893 27.1115 18.344C27.1808 17.5813 27.2155 16.7667 27.2155 15.9ZM33.2613 10.804C33.2613 9.452 33.6513 8.42067 34.4313 7.71C35.2113 6.982 36.1906 6.618 37.3693 6.618C38.5306 6.618 39.5013 6.982 40.2813 7.71C41.0613 8.42067 41.4513 9.452 41.4513 10.804C41.4513 12.156 41.0613 13.196 40.2813 13.924C39.5013 14.652 38.5306 15.016 37.3693 15.016C36.1906 15.016 35.2113 14.652 34.4313 13.924C33.6513 13.196 33.2613 12.156 33.2613 10.804ZM37.3433 8.724C36.8926 8.724 36.5286 8.88867 36.2513 9.218C35.9913 9.53 35.8613 10.0587 35.8613 10.804C35.8613 11.532 35.9913 12.0693 36.2513 12.416C36.5286 12.7453 36.8926 12.91 37.3433 12.91C37.794 12.91 38.158 12.7453 38.4353 12.416C38.7126 12.0693 38.8513 11.532 38.8513 10.804C38.8513 10.0587 38.7126 9.53 38.4353 9.218C38.158 8.88867 37.794 8.724 37.3433 8.724ZM46.3653 6.8H49.7973L39.5533 25H36.1213L46.3653 6.8ZM44.5193 20.97C44.5193 19.618 44.9093 18.5867 45.6893 17.876C46.4693 17.148 47.4486 16.784 48.6273 16.784C49.7713 16.784 50.7333 17.148 51.5133 17.876C52.2933 18.5867 52.6833 19.618 52.6833 20.97C52.6833 22.3393 52.2933 23.388 51.5133 24.116C50.7333 24.8267 49.7713 25.182 48.6273 25.182C47.4486 25.182 46.4693 24.8267 45.6893 24.116C44.9093 23.388 44.5193 22.3393 44.5193 20.97ZM48.6013 18.89C48.1333 18.89 47.7606 19.0547 47.4833 19.384C47.2233 19.7133 47.0933 20.242 47.0933 20.97C47.0933 21.698 47.2233 22.2267 47.4833 22.556C47.7606 22.8853 48.1333 23.05 48.6013 23.05C49.052 23.05 49.4073 22.8853 49.6673 22.556C49.9446 22.2267 50.0833 21.698 50.0833 20.97C50.0833 20.242 49.9446 19.7133 49.6673 19.384C49.4073 19.0547 49.052 18.89 48.6013 18.89Z" fill="#EFEFF3"/>
<path d="M68.7005 11.8H77.2925V13.144H73.8045V23H72.2045V13.144H68.7005V11.8ZM79.8839 11.8H81.4839V23H79.8839V11.8ZM86.3089 23H84.7089V11.8H86.4689L90.4529 20.872L94.4209 11.8H96.1649V23H94.5809V14.904L91.0289 23H89.8609L86.3089 14.904V23ZM106.881 13.144H100.993V16.648H105.409V17.992H100.993V21.656H106.881V23H99.3933V11.8H106.881V13.144ZM115.941 20.04C116.005 20.3387 116.133 20.616 116.325 20.872C116.527 21.128 116.799 21.336 117.141 21.496C117.482 21.656 117.903 21.736 118.405 21.736C119.151 21.736 119.701 21.5653 120.053 21.224C120.415 20.872 120.597 20.4613 120.597 19.992C120.597 19.608 120.485 19.2933 120.261 19.048C120.047 18.792 119.749 18.5787 119.365 18.408C118.991 18.2267 118.559 18.0667 118.069 17.928C117.642 17.8 117.221 17.6667 116.805 17.528C116.399 17.3787 116.031 17.1973 115.701 16.984C115.37 16.76 115.109 16.4773 114.917 16.136C114.725 15.784 114.629 15.3467 114.629 14.824C114.629 14.1733 114.783 13.6133 115.093 13.144C115.402 12.6747 115.834 12.3173 116.389 12.072C116.954 11.816 117.605 11.688 118.341 11.688C118.959 11.688 119.514 11.7787 120.005 11.96C120.495 12.1307 120.906 12.3813 121.237 12.712C121.578 13.032 121.829 13.4213 121.989 13.88L120.533 14.408C120.469 14.1733 120.335 13.9547 120.133 13.752C119.93 13.5387 119.674 13.368 119.365 13.24C119.055 13.112 118.709 13.048 118.325 13.048C117.93 13.0373 117.573 13.1013 117.253 13.24C116.943 13.368 116.693 13.5547 116.501 13.8C116.319 14.0453 116.229 14.3387 116.229 14.68C116.229 15.0533 116.335 15.3467 116.549 15.56C116.762 15.7733 117.045 15.9493 117.397 16.088C117.759 16.2267 118.154 16.36 118.581 16.488C119.029 16.6267 119.466 16.776 119.893 16.936C120.319 17.096 120.703 17.2987 121.045 17.544C121.397 17.7893 121.679 18.0987 121.893 18.472C122.106 18.8347 122.213 19.2933 122.213 19.848C122.213 20.4453 122.074 20.9893 121.797 21.48C121.519 21.9707 121.098 22.3653 120.533 22.664C119.978 22.9627 119.279 23.112 118.437 23.112C117.743 23.112 117.119 23.0053 116.565 22.792C116.01 22.5787 115.551 22.2853 115.189 21.912C114.837 21.528 114.602 21.0853 114.485 20.584L115.941 20.04ZM129.507 13.144H128.947L125.427 23H123.795L127.827 11.8H130.595L134.627 23H132.995L129.507 13.144ZM125.859 18.808H132.387V20.152H125.859V18.808ZM144.421 11.8H146.101L141.893 23H140.053L135.861 11.8H137.557L140.981 21.352L144.421 11.8ZM148.503 11.8H150.103V23H148.503V11.8ZM162.144 11.8V23H160.512L154.928 14.328V23H153.328V11.8H154.96L160.544 20.44V11.8H162.144ZM173.995 15.224C173.59 14.4667 173.073 13.9173 172.443 13.576C171.825 13.2347 171.147 13.064 170.411 13.064C169.665 13.064 168.982 13.2453 168.363 13.608C167.745 13.9707 167.254 14.4773 166.891 15.128C166.539 15.768 166.363 16.5253 166.363 17.4C166.363 18.264 166.539 19.0213 166.891 19.672C167.243 20.3227 167.723 20.8293 168.331 21.192C168.95 21.5547 169.638 21.736 170.395 21.736C170.939 21.736 171.451 21.64 171.931 21.448C172.411 21.256 172.827 20.9893 173.179 20.648C173.542 20.3067 173.825 19.9013 174.027 19.432V18.216H170.507V16.904H175.643V19.512C175.387 20.1947 175.003 20.808 174.491 21.352C173.99 21.896 173.387 22.328 172.683 22.648C171.99 22.9573 171.227 23.112 170.395 23.112C169.606 23.112 168.865 22.9733 168.171 22.696C167.489 22.4187 166.891 22.0293 166.379 21.528C165.867 21.016 165.467 20.4133 165.179 19.72C164.891 19.016 164.747 18.2427 164.747 17.4C164.747 16.568 164.891 15.8053 165.179 15.112C165.467 14.408 165.867 13.8 166.379 13.288C166.891 12.776 167.489 12.3813 168.171 12.104C168.865 11.8267 169.606 11.688 170.395 11.688C171.11 11.688 171.793 11.8053 172.443 12.04C173.094 12.2747 173.675 12.616 174.187 13.064C174.699 13.512 175.099 14.0613 175.387 14.712L173.995 15.224Z" fill="#EFEFF3"/>
</svg>
