<svg width="329" height="32" viewBox="0 0 329 32" fill="none" xmlns="http://www.w3.org/2000/svg">
<path d="M2.38 9.738H-0.116V6.8H5.89V25H2.38V9.738ZM9.0622 15.9C9.0622 14.5307 9.17487 13.2827 9.4002 12.156C9.62554 11.012 10.0069 10.0327 10.5442 9.218C11.0815 8.386 11.8009 7.74467 12.7022 7.294C13.6035 6.84333 14.7129 6.618 16.0302 6.618C17.3822 6.618 18.5002 6.84333 19.3842 7.294C20.2855 7.74467 20.9962 8.386 21.5162 9.218C22.0535 10.0327 22.4349 11.012 22.6602 12.156C22.9029 13.2827 23.0242 14.5307 23.0242 15.9C23.0242 17.2867 22.9029 18.552 22.6602 19.696C22.4349 20.84 22.0535 21.8193 21.5162 22.634C20.9962 23.4487 20.2855 24.0813 19.3842 24.532C18.5002 24.9653 17.3822 25.182 16.0302 25.182C14.7129 25.182 13.6035 24.9653 12.7022 24.532C11.8009 24.0813 11.0815 23.4487 10.5442 22.634C10.0069 21.8193 9.62554 20.84 9.4002 19.696C9.17487 18.552 9.0622 17.2867 9.0622 15.9ZM19.4362 15.9C19.4362 15.0853 19.4015 14.3053 19.3322 13.56C19.2802 12.7973 19.1415 12.1213 18.9162 11.532C18.6909 10.9253 18.3529 10.4573 17.9022 10.128C17.4515 9.78133 16.8275 9.608 16.0302 9.608C15.2502 9.608 14.6349 9.78133 14.1842 10.128C13.7335 10.4573 13.3955 10.9253 13.1702 11.532C12.9449 12.1213 12.7975 12.7973 12.7282 13.56C12.6762 14.3053 12.6502 15.0853 12.6502 15.9C12.6502 16.7667 12.6762 17.5813 12.7282 18.344C12.7975 19.0893 12.9449 19.7567 13.1702 20.346C13.3955 20.918 13.7335 21.3687 14.1842 21.698C14.6349 22.0273 15.2502 22.192 16.0302 22.192C16.8275 22.192 17.4515 22.0273 17.9022 21.698C18.3529 21.3687 18.6909 20.918 18.9162 20.346C19.1415 19.7567 19.2802 19.0893 19.3322 18.344C19.4015 17.5813 19.4362 16.7667 19.4362 15.9ZM25.82 15.9C25.82 14.5307 25.9327 13.2827 26.158 12.156C26.3833 11.012 26.7647 10.0327 27.302 9.218C27.8393 8.386 28.5587 7.74467 29.46 7.294C30.3613 6.84333 31.4707 6.618 32.788 6.618C34.14 6.618 35.258 6.84333 36.142 7.294C37.0433 7.74467 37.754 8.386 38.274 9.218C38.8113 10.0327 39.1927 11.012 39.418 12.156C39.6607 13.2827 39.782 14.5307 39.782 15.9C39.782 17.2867 39.6607 18.552 39.418 19.696C39.1927 20.84 38.8113 21.8193 38.274 22.634C37.754 23.4487 37.0433 24.0813 36.142 24.532C35.258 24.9653 34.14 25.182 32.788 25.182C31.4707 25.182 30.3613 24.9653 29.46 24.532C28.5587 24.0813 27.8393 23.4487 27.302 22.634C26.7647 21.8193 26.3833 20.84 26.158 19.696C25.9327 18.552 25.82 17.2867 25.82 15.9ZM36.194 15.9C36.194 15.0853 36.1593 14.3053 36.09 13.56C36.038 12.7973 35.8993 12.1213 35.674 11.532C35.4487 10.9253 35.1107 10.4573 34.66 10.128C34.2093 9.78133 33.5853 9.608 32.788 9.608C32.008 9.608 31.3927 9.78133 30.942 10.128C30.4913 10.4573 30.1533 10.9253 29.928 11.532C29.7027 12.1213 29.5553 12.7973 29.486 13.56C29.434 14.3053 29.408 15.0853 29.408 15.9C29.408 16.7667 29.434 17.5813 29.486 18.344C29.5553 19.0893 29.7027 19.7567 29.928 20.346C30.1533 20.918 30.4913 21.3687 30.942 21.698C31.3927 22.0273 32.008 22.192 32.788 22.192C33.5853 22.192 34.2093 22.0273 34.66 21.698C35.1107 21.3687 35.4487 20.918 35.674 20.346C35.8993 19.7567 36.038 19.0893 36.09 18.344C36.1593 17.5813 36.194 16.7667 36.194 15.9ZM42.5778 15.9C42.5778 14.5307 42.6905 13.2827 42.9158 12.156C43.1412 11.012 43.5225 10.0327 44.0598 9.218C44.5972 8.386 45.3165 7.74467 46.2178 7.294C47.1192 6.84333 48.2285 6.618 49.5458 6.618C50.8978 6.618 52.0158 6.84333 52.8998 7.294C53.8012 7.74467 54.5118 8.386 55.0318 9.218C55.5692 10.0327 55.9505 11.012 56.1758 12.156C56.4185 13.2827 56.5398 14.5307 56.5398 15.9C56.5398 17.2867 56.4185 18.552 56.1758 19.696C55.9505 20.84 55.5692 21.8193 55.0318 22.634C54.5118 23.4487 53.8012 24.0813 52.8998 24.532C52.0158 24.9653 50.8978 25.182 49.5458 25.182C48.2285 25.182 47.1192 24.9653 46.2178 24.532C45.3165 24.0813 44.5972 23.4487 44.0598 22.634C43.5225 21.8193 43.1412 20.84 42.9158 19.696C42.6905 18.552 42.5778 17.2867 42.5778 15.9ZM52.9518 15.9C52.9518 15.0853 52.9172 14.3053 52.8478 13.56C52.7958 12.7973 52.6572 12.1213 52.4318 11.532C52.2065 10.9253 51.8685 10.4573 51.4178 10.128C50.9672 9.78133 50.3432 9.608 49.5458 9.608C48.7658 9.608 48.1505 9.78133 47.6998 10.128C47.2492 10.4573 46.9112 10.9253 46.6858 11.532C46.4605 12.1213 46.3132 12.7973 46.2438 13.56C46.1918 14.3053 46.1658 15.0853 46.1658 15.9C46.1658 16.7667 46.1918 17.5813 46.2438 18.344C46.3132 19.0893 46.4605 19.7567 46.6858 20.346C46.9112 20.918 47.2492 21.3687 47.6998 21.698C48.1505 22.0273 48.7658 22.192 49.5458 22.192C50.3432 22.192 50.9672 22.0273 51.4178 21.698C51.8685 21.3687 52.2065 20.918 52.4318 20.346C52.6572 19.7567 52.7958 19.0893 52.8478 18.344C52.9172 17.5813 52.9518 16.7667 52.9518 15.9ZM59.3356 15.9C59.3356 14.5307 59.4483 13.2827 59.6736 12.156C59.899 11.012 60.2803 10.0327 60.8176 9.218C61.355 8.386 62.0743 7.74467 62.9756 7.294C63.877 6.84333 64.9863 6.618 66.3036 6.618C67.6556 6.618 68.7736 6.84333 69.6576 7.294C70.559 7.74467 71.2696 8.386 71.7896 9.218C72.327 10.0327 72.7083 11.012 72.9336 12.156C73.1763 13.2827 73.2976 14.5307 73.2976 15.9C73.2976 17.2867 73.1763 18.552 72.9336 19.696C72.7083 20.84 72.327 21.8193 71.7896 22.634C71.2696 23.4487 70.559 24.0813 69.6576 24.532C68.7736 24.9653 67.6556 25.182 66.3036 25.182C64.9863 25.182 63.877 24.9653 62.9756 24.532C62.0743 24.0813 61.355 23.4487 60.8176 22.634C60.2803 21.8193 59.899 20.84 59.6736 19.696C59.4483 18.552 59.3356 17.2867 59.3356 15.9ZM69.7096 15.9C69.7096 15.0853 69.675 14.3053 69.6056 13.56C69.5536 12.7973 69.415 12.1213 69.1896 11.532C68.9643 10.9253 68.6263 10.4573 68.1756 10.128C67.725 9.78133 67.101 9.608 66.3036 9.608C65.5236 9.608 64.9083 9.78133 64.4576 10.128C64.007 10.4573 63.669 10.9253 63.4436 11.532C63.2183 12.1213 63.071 12.7973 63.0016 13.56C62.9496 14.3053 62.9236 15.0853 62.9236 15.9C62.9236 16.7667 62.9496 17.5813 63.0016 18.344C63.071 19.0893 63.2183 19.7567 63.4436 20.346C63.669 20.918 64.007 21.3687 64.4576 21.698C64.9083 22.0273 65.5236 22.192 66.3036 22.192C67.101 22.192 67.725 22.0273 68.1756 21.698C68.6263 21.3687 68.9643 20.918 69.1896 20.346C69.415 19.7567 69.5536 19.0893 69.6056 18.344C69.675 17.5813 69.7096 16.7667 69.7096 15.9ZM84.3095 9.27V22.53H80.9815V9.27H84.3095ZM76.0155 14.366H89.2755V17.434H76.0155V14.366Z" fill="#EFEFF3"/>
<path d="M107.484 11.8C108.7 11.8 109.745 12.0293 110.62 12.488C111.505 12.9467 112.188 13.5973 112.668 14.44C113.159 15.2827 113.404 16.2853 113.404 17.448C113.404 18.6 113.159 19.592 112.668 20.424C112.188 21.2453 111.505 21.88 110.62 22.328C109.745 22.776 108.7 23 107.484 23H103.644V11.8H107.484ZM107.484 21.656C108.892 21.656 109.959 21.288 110.684 20.552C111.42 19.8053 111.788 18.7707 111.788 17.448C111.788 16.104 111.42 15.0533 110.684 14.296C109.959 13.528 108.892 13.144 107.484 13.144H105.244V21.656H107.484ZM123.488 13.144H117.6V16.648H122.016V17.992H117.6V21.656H123.488V23H116V11.8H123.488V13.144ZM134.115 11.8H135.795L131.587 23H129.747L125.555 11.8H127.251L130.675 21.352L134.115 11.8ZM145.685 13.144H139.797V16.648H144.213V17.992H139.797V21.656H145.685V23H138.197V11.8H145.685V13.144ZM150.2 11.8V21.656H155.32V23H148.6V11.8H150.2ZM162.73 23.112C161.941 23.112 161.2 22.9733 160.506 22.696C159.824 22.4187 159.226 22.0293 158.714 21.528C158.202 21.016 157.802 20.4133 157.514 19.72C157.226 19.016 157.082 18.2427 157.082 17.4C157.082 16.5573 157.226 15.7893 157.514 15.096C157.802 14.4027 158.202 13.8 158.714 13.288C159.226 12.776 159.824 12.3813 160.506 12.104C161.2 11.8267 161.941 11.688 162.73 11.688C163.509 11.688 164.24 11.8267 164.922 12.104C165.605 12.3813 166.202 12.776 166.714 13.288C167.226 13.8 167.626 14.4027 167.914 15.096C168.202 15.7893 168.346 16.5573 168.346 17.4C168.346 18.2427 168.202 19.016 167.914 19.72C167.626 20.4133 167.226 21.016 166.714 21.528C166.202 22.0293 165.605 22.4187 164.922 22.696C164.24 22.9733 163.509 23.112 162.73 23.112ZM162.73 21.736C163.488 21.736 164.165 21.56 164.762 21.208C165.37 20.856 165.85 20.3547 166.202 19.704C166.554 19.0533 166.73 18.2853 166.73 17.4C166.73 16.504 166.554 15.736 166.202 15.096C165.85 14.4453 165.37 13.944 164.762 13.592C164.165 13.24 163.488 13.064 162.73 13.064C161.962 13.064 161.274 13.24 160.666 13.592C160.058 13.944 159.578 14.4453 159.226 15.096C158.885 15.736 158.714 16.504 158.714 17.4C158.714 18.2853 158.885 19.0533 159.226 19.704C159.578 20.3547 160.058 20.856 160.666 21.208C161.274 21.56 161.962 21.736 162.73 21.736ZM175.114 17.128C175.636 17.128 176.063 17.048 176.394 16.888C176.735 16.7173 176.986 16.4827 177.146 16.184C177.306 15.8853 177.386 15.5387 177.386 15.144C177.386 14.5147 177.204 14.024 176.842 13.672C176.479 13.32 175.903 13.144 175.114 13.144H172.538V17.128H175.114ZM178.986 15.144C178.986 15.5493 178.916 15.9547 178.778 16.36C178.639 16.7547 178.415 17.112 178.106 17.432C177.796 17.752 177.391 18.008 176.89 18.2C176.399 18.3813 175.807 18.472 175.114 18.472H172.538V23H170.938V11.8H175.114C175.988 11.8 176.708 11.9547 177.274 12.264C177.85 12.5627 178.276 12.968 178.554 13.48C178.842 13.9813 178.986 14.536 178.986 15.144ZM189.079 13.144H183.191V16.648H187.607V17.992H183.191V21.656H189.079V23H181.591V11.8H189.079V13.144ZM198.426 15.144C198.426 14.536 198.245 14.0507 197.882 13.688C197.519 13.3253 196.943 13.144 196.154 13.144H193.594V17.128H196.17C196.693 17.128 197.119 17.048 197.45 16.888C197.781 16.7173 198.026 16.4827 198.186 16.184C198.346 15.8853 198.426 15.5387 198.426 15.144ZM196.154 11.8C197.039 11.8 197.765 11.9547 198.33 12.264C198.906 12.5627 199.333 12.9627 199.61 13.464C199.898 13.9653 200.042 14.5253 200.042 15.144C200.042 15.5493 199.973 15.9493 199.834 16.344C199.695 16.7387 199.471 17.1013 199.162 17.432C198.853 17.752 198.447 18.008 197.946 18.2C197.455 18.3813 196.863 18.472 196.17 18.472H193.594V23H191.994V11.8H196.154ZM197.178 17.928L200.266 23H198.458L195.482 17.928H197.178ZM203.826 20.04C203.89 20.3387 204.018 20.616 204.21 20.872C204.412 21.128 204.684 21.336 205.026 21.496C205.367 21.656 205.788 21.736 206.29 21.736C207.036 21.736 207.586 21.5653 207.938 21.224C208.3 20.872 208.482 20.4613 208.482 19.992C208.482 19.608 208.37 19.2933 208.146 19.048C207.932 18.792 207.634 18.5787 207.25 18.408C206.876 18.2267 206.444 18.0667 205.954 17.928C205.527 17.8 205.106 17.6667 204.69 17.528C204.284 17.3787 203.916 17.1973 203.586 16.984C203.255 16.76 202.994 16.4773 202.802 16.136C202.61 15.784 202.514 15.3467 202.514 14.824C202.514 14.1733 202.668 13.6133 202.978 13.144C203.287 12.6747 203.719 12.3173 204.274 12.072C204.839 11.816 205.49 11.688 206.226 11.688C206.844 11.688 207.399 11.7787 207.89 11.96C208.38 12.1307 208.791 12.3813 209.122 12.712C209.463 13.032 209.714 13.4213 209.874 13.88L208.418 14.408C208.354 14.1733 208.22 13.9547 208.018 13.752C207.815 13.5387 207.559 13.368 207.25 13.24C206.94 13.112 206.594 13.048 206.21 13.048C205.815 13.0373 205.458 13.1013 205.138 13.24C204.828 13.368 204.578 13.5547 204.386 13.8C204.204 14.0453 204.114 14.3387 204.114 14.68C204.114 15.0533 204.22 15.3467 204.434 15.56C204.647 15.7733 204.93 15.9493 205.282 16.088C205.644 16.2267 206.039 16.36 206.466 16.488C206.914 16.6267 207.351 16.776 207.778 16.936C208.204 17.096 208.588 17.2987 208.93 17.544C209.282 17.7893 209.564 18.0987 209.778 18.472C209.991 18.8347 210.098 19.2933 210.098 19.848C210.098 20.4453 209.959 20.9893 209.682 21.48C209.404 21.9707 208.983 22.3653 208.418 22.664C207.863 22.9627 207.164 23.112 206.322 23.112C205.628 23.112 205.004 23.0053 204.45 22.792C203.895 22.5787 203.436 22.2853 203.074 21.912C202.722 21.528 202.487 21.0853 202.37 20.584L203.826 20.04ZM218 11.8H219.6V23H218V11.8ZM231.641 11.8V23H230.009L224.425 14.328V23H222.825V11.8H224.457L230.041 20.44V11.8H231.641ZM243.893 11.8C245.109 11.8 246.155 12.0293 247.029 12.488C247.915 12.9467 248.597 13.5973 249.077 14.44C249.568 15.2827 249.813 16.2853 249.813 17.448C249.813 18.6 249.568 19.592 249.077 20.424C248.597 21.2453 247.915 21.88 247.029 22.328C246.155 22.776 245.109 23 243.893 23H240.053V11.8H243.893ZM243.893 21.656C245.301 21.656 246.368 21.288 247.093 20.552C247.829 19.8053 248.197 18.7707 248.197 17.448C248.197 16.104 247.829 15.0533 247.093 14.296C246.368 13.528 245.301 13.144 243.893 13.144H241.653V21.656H243.893ZM256.986 13.144H256.426L252.906 23H251.274L255.306 11.8H258.074L262.106 23H260.474L256.986 13.144ZM253.338 18.808H259.866V20.152H253.338V18.808ZM263.564 11.8H272.156V13.144H268.668V23H267.068V13.144H263.564V11.8ZM279.323 13.144H278.763L275.243 23H273.611L277.643 11.8H280.411L284.443 23H282.811L279.323 13.144ZM275.675 18.808H282.203V20.152H275.675V18.808ZM293.213 14.904C293.213 14.36 293.032 13.9333 292.669 13.624C292.317 13.304 291.805 13.144 291.133 13.144H288.125V16.648H291.149C291.8 16.648 292.306 16.4933 292.669 16.184C293.032 15.8747 293.213 15.448 293.213 14.904ZM286.525 23V11.8H291.277C292.066 11.8 292.722 11.9333 293.245 12.2C293.768 12.4667 294.157 12.8187 294.413 13.256C294.68 13.6933 294.813 14.1787 294.813 14.712C294.813 15.2133 294.717 15.6347 294.525 15.976C294.344 16.3173 294.098 16.5893 293.789 16.792C293.49 16.9947 293.149 17.1387 292.765 17.224V17.336C293.224 17.4 293.624 17.5387 293.965 17.752C294.317 17.9547 294.589 18.2427 294.781 18.616C294.984 18.9893 295.085 19.4533 295.085 20.008C295.085 20.5627 294.941 21.0693 294.653 21.528C294.365 21.9867 293.949 22.3493 293.405 22.616C292.872 22.872 292.221 23 291.453 23H286.525ZM288.125 21.656H291.309C291.992 21.656 292.525 21.5013 292.909 21.192C293.304 20.872 293.501 20.4187 293.501 19.832C293.501 19.2347 293.293 18.7813 292.877 18.472C292.472 18.152 291.933 17.992 291.261 17.992H288.125V21.656ZM302.457 13.144H301.897L298.377 23H296.745L300.777 11.8H303.545L307.577 23H305.945L302.457 13.144ZM298.809 18.808H305.337V20.152H298.809V18.808ZM310.62 20.04C310.684 20.3387 310.812 20.616 311.004 20.872C311.206 21.128 311.478 21.336 311.82 21.496C312.161 21.656 312.582 21.736 313.084 21.736C313.83 21.736 314.38 21.5653 314.732 21.224C315.094 20.872 315.276 20.4613 315.276 19.992C315.276 19.608 315.164 19.2933 314.94 19.048C314.726 18.792 314.428 18.5787 314.044 18.408C313.67 18.2267 313.238 18.0667 312.748 17.928C312.321 17.8 311.9 17.6667 311.484 17.528C311.078 17.3787 310.71 17.1973 310.38 16.984C310.049 16.76 309.788 16.4773 309.596 16.136C309.404 15.784 309.308 15.3467 309.308 14.824C309.308 14.1733 309.462 13.6133 309.772 13.144C310.081 12.6747 310.513 12.3173 311.068 12.072C311.633 11.816 312.284 11.688 313.02 11.688C313.638 11.688 314.193 11.7787 314.684 11.96C315.174 12.1307 315.585 12.3813 315.916 12.712C316.257 13.032 316.508 13.4213 316.668 13.88L315.212 14.408C315.148 14.1733 315.014 13.9547 314.812 13.752C314.609 13.5387 314.353 13.368 314.044 13.24C313.734 13.112 313.388 13.048 313.004 13.048C312.609 13.0373 312.252 13.1013 311.932 13.24C311.622 13.368 311.372 13.5547 311.18 13.8C310.998 14.0453 310.908 14.3387 310.908 14.68C310.908 15.0533 311.014 15.3467 311.228 15.56C311.441 15.7733 311.724 15.9493 312.076 16.088C312.438 16.2267 312.833 16.36 313.26 16.488C313.708 16.6267 314.145 16.776 314.572 16.936C314.998 17.096 315.382 17.2987 315.724 17.544C316.076 17.7893 316.358 18.0987 316.572 18.472C316.785 18.8347 316.892 19.2933 316.892 19.848C316.892 20.4453 316.753 20.9893 316.476 21.48C316.198 21.9707 315.777 22.3653 315.212 22.664C314.657 22.9627 313.958 23.112 313.116 23.112C312.422 23.112 311.798 23.0053 311.244 22.792C310.689 22.5787 310.23 22.2853 309.868 21.912C309.516 21.528 309.281 21.0853 309.164 20.584L310.62 20.04ZM327.098 13.144H321.21V16.648H325.626V17.992H321.21V21.656H327.098V23H319.61V11.8H327.098V13.144Z" fill="#EFEFF3"/>
</svg>
