<svg width="190" height="32" viewBox="0 0 190 32" fill="none" xmlns="http://www.w3.org/2000/svg">
<path d="M1.222 22.452L6.292 17.694C7.228 16.81 7.96467 16.0647 8.502 15.458C9.05667 14.8513 9.44667 14.2967 9.672 13.794C9.91467 13.274 10.036 12.7367 10.036 12.182C10.036 11.4193 9.828 10.804 9.412 10.336C9.01333 9.85067 8.33733 9.608 7.384 9.608C6.812 9.608 6.318 9.74667 5.902 10.024C5.486 10.284 5.16533 10.6653 4.94 11.168C4.71467 11.6707 4.59333 12.2773 4.576 12.988H1.196C1.23067 11.5147 1.534 10.31 2.106 9.374C2.678 8.438 3.432 7.74467 4.368 7.294C5.304 6.84333 6.344 6.618 7.488 6.618C8.82267 6.618 9.94933 6.86067 10.868 7.346C11.7867 7.814 12.4713 8.45533 12.922 9.27C13.39 10.0847 13.624 11.0207 13.624 12.078C13.624 12.858 13.4853 13.6033 13.208 14.314C12.948 15.0247 12.4973 15.7787 11.856 16.576C11.2147 17.3733 10.322 18.292 9.178 19.332L6.162 22.062H14.04V25H1.222V22.452ZM28.8033 6.8V9.738H20.6133V14.106C20.96 13.6727 21.4193 13.326 21.9913 13.066C22.5807 12.806 23.2827 12.676 24.0973 12.676C25.172 12.676 26.0907 12.8667 26.8533 13.248C27.616 13.6293 28.2313 14.1233 28.6993 14.73C29.1847 15.3193 29.5313 15.9693 29.7393 16.68C29.9647 17.3907 30.0773 18.0753 30.0773 18.734C30.0773 19.982 29.8087 21.0913 29.2713 22.062C28.7513 23.0327 27.9973 23.7953 27.0093 24.35C26.0387 24.9047 24.8687 25.182 23.4993 25.182C22.1473 25.182 20.986 24.9567 20.0153 24.506C19.062 24.038 18.308 23.4053 17.7533 22.608C17.216 21.8107 16.8867 20.9007 16.7653 19.878H20.1973C20.3533 20.554 20.7087 21.1087 21.2633 21.542C21.818 21.9753 22.546 22.192 23.4473 22.192C24.158 22.192 24.73 22.0533 25.1633 21.776C25.614 21.4987 25.952 21.1087 26.1773 20.606C26.4027 20.086 26.5153 19.4707 26.5153 18.76C26.5153 17.7547 26.2467 16.9747 25.7093 16.42C25.172 15.8653 24.4093 15.588 23.4213 15.588C22.676 15.588 22.052 15.7873 21.5493 16.186C21.0467 16.5673 20.6913 17.0613 20.4833 17.668H17.1033V6.8H28.8033ZM32.4742 10.804C32.4742 9.452 32.8642 8.42067 33.6442 7.71C34.4242 6.982 35.4035 6.618 36.5822 6.618C37.7435 6.618 38.7142 6.982 39.4942 7.71C40.2742 8.42067 40.6642 9.452 40.6642 10.804C40.6642 12.156 40.2742 13.196 39.4942 13.924C38.7142 14.652 37.7435 15.016 36.5822 15.016C35.4035 15.016 34.4242 14.652 33.6442 13.924C32.8642 13.196 32.4742 12.156 32.4742 10.804ZM36.5562 8.724C36.1055 8.724 35.7415 8.88867 35.4642 9.218C35.2042 9.53 35.0742 10.0587 35.0742 10.804C35.0742 11.532 35.2042 12.0693 35.4642 12.416C35.7415 12.7453 36.1055 12.91 36.5562 12.91C37.0069 12.91 37.3709 12.7453 37.6482 12.416C37.9255 12.0693 38.0642 11.532 38.0642 10.804C38.0642 10.0587 37.9255 9.53 37.6482 9.218C37.3709 8.88867 37.0069 8.724 36.5562 8.724ZM45.5782 6.8H49.0102L38.7662 25H35.3342L45.5782 6.8ZM43.7322 20.97C43.7322 19.618 44.1222 18.5867 44.9022 17.876C45.6822 17.148 46.6615 16.784 47.8402 16.784C48.9842 16.784 49.9462 17.148 50.7262 17.876C51.5062 18.5867 51.8962 19.618 51.8962 20.97C51.8962 22.3393 51.5062 23.388 50.7262 24.116C49.9462 24.8267 48.9842 25.182 47.8402 25.182C46.6615 25.182 45.6822 24.8267 44.9022 24.116C44.1222 23.388 43.7322 22.3393 43.7322 20.97ZM47.8142 18.89C47.3462 18.89 46.9735 19.0547 46.6962 19.384C46.4362 19.7133 46.3062 20.242 46.3062 20.97C46.3062 21.698 46.4362 22.2267 46.6962 22.556C46.9735 22.8853 47.3462 23.05 47.8142 23.05C48.2649 23.05 48.6202 22.8853 48.8802 22.556C49.1575 22.2267 49.2962 21.698 49.2962 20.97C49.2962 20.242 49.1575 19.7133 48.8802 19.384C48.6202 19.0547 48.2649 18.89 47.8142 18.89Z" fill="#EFEFF3"/>
<path d="M65.64 17.4C65.64 16.5573 65.784 15.7893 66.072 15.096C66.36 14.392 66.76 13.7893 67.272 13.288C67.784 12.776 68.376 12.3813 69.048 12.104C69.7307 11.8267 70.4667 11.688 71.256 11.688C72.376 11.688 73.3733 11.9493 74.248 12.472C75.1333 12.9947 75.8053 13.7467 76.264 14.728L74.984 15.192C74.728 14.6907 74.4027 14.2853 74.008 13.976C73.6133 13.6667 73.1813 13.4373 72.712 13.288C72.2427 13.1387 71.768 13.064 71.288 13.064C70.5307 13.064 69.8427 13.24 69.224 13.592C68.616 13.944 68.136 14.4453 67.784 15.096C67.4427 15.7467 67.272 16.5147 67.272 17.4C67.272 18.2747 67.4427 19.0373 67.784 19.688C68.136 20.3387 68.616 20.8453 69.224 21.208C69.8427 21.56 70.5307 21.736 71.288 21.736C71.7787 21.736 72.264 21.656 72.744 21.496C73.224 21.336 73.672 21.08 74.088 20.728C74.504 20.3653 74.8453 19.896 75.112 19.32L76.392 19.768C75.912 20.8987 75.224 21.7413 74.328 22.296C73.432 22.84 72.408 23.112 71.256 23.112C70.4667 23.112 69.7307 22.9733 69.048 22.696C68.376 22.4187 67.784 22.024 67.272 21.512C66.76 21 66.36 20.3973 66.072 19.704C65.784 19 65.64 18.232 65.64 17.4ZM84.2067 23.112C83.4174 23.112 82.6761 22.9733 81.9827 22.696C81.3001 22.4187 80.7027 22.0293 80.1907 21.528C79.6787 21.016 79.2787 20.4133 78.9907 19.72C78.7027 19.016 78.5587 18.2427 78.5587 17.4C78.5587 16.5573 78.7027 15.7893 78.9907 15.096C79.2787 14.4027 79.6787 13.8 80.1907 13.288C80.7027 12.776 81.3001 12.3813 81.9827 12.104C82.6761 11.8267 83.4174 11.688 84.2067 11.688C84.9854 11.688 85.7161 11.8267 86.3988 12.104C87.0814 12.3813 87.6788 12.776 88.1908 13.288C88.7028 13.8 89.1028 14.4027 89.3907 15.096C89.6788 15.7893 89.8228 16.5573 89.8228 17.4C89.8228 18.2427 89.6788 19.016 89.3907 19.72C89.1028 20.4133 88.7028 21.016 88.1908 21.528C87.6788 22.0293 87.0814 22.4187 86.3988 22.696C85.7161 22.9733 84.9854 23.112 84.2067 23.112ZM84.2067 21.736C84.9641 21.736 85.6414 21.56 86.2388 21.208C86.8468 20.856 87.3268 20.3547 87.6788 19.704C88.0307 19.0533 88.2067 18.2853 88.2067 17.4C88.2067 16.504 88.0307 15.736 87.6788 15.096C87.3268 14.4453 86.8468 13.944 86.2388 13.592C85.6414 13.24 84.9641 13.064 84.2067 13.064C83.4387 13.064 82.7507 13.24 82.1427 13.592C81.5347 13.944 81.0548 14.4453 80.7027 15.096C80.3614 15.736 80.1907 16.504 80.1907 17.4C80.1907 18.2853 80.3614 19.0533 80.7027 19.704C81.0548 20.3547 81.5347 20.856 82.1427 21.208C82.7507 21.56 83.4387 21.736 84.2067 21.736ZM93.374 20.04C93.438 20.3387 93.566 20.616 93.758 20.872C93.9607 21.128 94.2327 21.336 94.574 21.496C94.9153 21.656 95.3367 21.736 95.838 21.736C96.5847 21.736 97.134 21.5653 97.486 21.224C97.8487 20.872 98.03 20.4613 98.03 19.992C98.03 19.608 97.918 19.2933 97.694 19.048C97.4807 18.792 97.182 18.5787 96.798 18.408C96.4247 18.2267 95.9927 18.0667 95.502 17.928C95.0753 17.8 94.654 17.6667 94.238 17.528C93.8327 17.3787 93.4647 17.1973 93.134 16.984C92.8033 16.76 92.542 16.4773 92.35 16.136C92.158 15.784 92.062 15.3467 92.062 14.824C92.062 14.1733 92.2167 13.6133 92.526 13.144C92.8353 12.6747 93.2673 12.3173 93.822 12.072C94.3873 11.816 95.038 11.688 95.774 11.688C96.3927 11.688 96.9473 11.7787 97.438 11.96C97.9287 12.1307 98.3393 12.3813 98.67 12.712C99.0113 13.032 99.262 13.4213 99.422 13.88L97.966 14.408C97.902 14.1733 97.7687 13.9547 97.566 13.752C97.3633 13.5387 97.1073 13.368 96.798 13.24C96.4887 13.112 96.142 13.048 95.758 13.048C95.3633 13.0373 95.006 13.1013 94.686 13.24C94.3767 13.368 94.126 13.5547 93.934 13.8C93.7527 14.0453 93.662 14.3387 93.662 14.68C93.662 15.0533 93.7687 15.3467 93.982 15.56C94.1953 15.7733 94.478 15.9493 94.83 16.088C95.1927 16.2267 95.5873 16.36 96.014 16.488C96.462 16.6267 96.8993 16.776 97.326 16.936C97.7527 17.096 98.1367 17.2987 98.478 17.544C98.83 17.7893 99.1127 18.0987 99.326 18.472C99.5393 18.8347 99.646 19.2933 99.646 19.848C99.646 20.4453 99.5073 20.9893 99.23 21.48C98.9527 21.9707 98.5313 22.3653 97.966 22.664C97.4113 22.9627 96.7127 23.112 95.87 23.112C95.1767 23.112 94.5527 23.0053 93.998 22.792C93.4433 22.5787 92.9847 22.2853 92.622 21.912C92.27 21.528 92.0353 21.0853 91.918 20.584L93.374 20.04ZM101.74 11.8H110.332V13.144H106.844V23H105.244V13.144H101.74V11.8ZM119.068 20.04C119.132 20.3387 119.26 20.616 119.452 20.872C119.654 21.128 119.926 21.336 120.268 21.496C120.609 21.656 121.03 21.736 121.532 21.736C122.278 21.736 122.828 21.5653 123.18 21.224C123.542 20.872 123.724 20.4613 123.724 19.992C123.724 19.608 123.612 19.2933 123.388 19.048C123.174 18.792 122.876 18.5787 122.492 18.408C122.118 18.2267 121.686 18.0667 121.196 17.928C120.769 17.8 120.348 17.6667 119.932 17.528C119.526 17.3787 119.158 17.1973 118.828 16.984C118.497 16.76 118.236 16.4773 118.044 16.136C117.852 15.784 117.756 15.3467 117.756 14.824C117.756 14.1733 117.91 13.6133 118.22 13.144C118.529 12.6747 118.961 12.3173 119.516 12.072C120.081 11.816 120.732 11.688 121.468 11.688C122.086 11.688 122.641 11.7787 123.132 11.96C123.622 12.1307 124.033 12.3813 124.364 12.712C124.705 13.032 124.956 13.4213 125.116 13.88L123.66 14.408C123.596 14.1733 123.462 13.9547 123.26 13.752C123.057 13.5387 122.801 13.368 122.492 13.24C122.182 13.112 121.836 13.048 121.452 13.048C121.057 13.0373 120.7 13.1013 120.38 13.24C120.07 13.368 119.82 13.5547 119.628 13.8C119.446 14.0453 119.356 14.3387 119.356 14.68C119.356 15.0533 119.462 15.3467 119.676 15.56C119.889 15.7733 120.172 15.9493 120.524 16.088C120.886 16.2267 121.281 16.36 121.708 16.488C122.156 16.6267 122.593 16.776 123.02 16.936C123.446 17.096 123.83 17.2987 124.172 17.544C124.524 17.7893 124.806 18.0987 125.02 18.472C125.233 18.8347 125.34 19.2933 125.34 19.848C125.34 20.4453 125.201 20.9893 124.924 21.48C124.646 21.9707 124.225 22.3653 123.66 22.664C123.105 22.9627 122.406 23.112 121.564 23.112C120.87 23.112 120.246 23.0053 119.692 22.792C119.137 22.5787 118.678 22.2853 118.316 21.912C117.964 21.528 117.729 21.0853 117.612 20.584L119.068 20.04ZM132.634 13.144H132.074L128.554 23H126.922L130.954 11.8H133.722L137.754 23H136.122L132.634 13.144ZM128.986 18.808H135.514V20.152H128.986V18.808ZM147.548 11.8H149.228L145.02 23H143.18L138.988 11.8H140.684L144.108 21.352L147.548 11.8ZM151.63 11.8H153.23V23H151.63V11.8ZM165.271 11.8V23H163.639L158.055 14.328V23H156.455V11.8H158.087L163.671 20.44V11.8H165.271ZM177.122 15.224C176.717 14.4667 176.2 13.9173 175.57 13.576C174.952 13.2347 174.274 13.064 173.538 13.064C172.792 13.064 172.109 13.2453 171.49 13.608C170.872 13.9707 170.381 14.4773 170.018 15.128C169.666 15.768 169.49 16.5253 169.49 17.4C169.49 18.264 169.666 19.0213 170.018 19.672C170.37 20.3227 170.85 20.8293 171.458 21.192C172.077 21.5547 172.765 21.736 173.522 21.736C174.066 21.736 174.578 21.64 175.058 21.448C175.538 21.256 175.954 20.9893 176.306 20.648C176.669 20.3067 176.952 19.9013 177.154 19.432V18.216H173.634V16.904H178.77V19.512C178.514 20.1947 178.13 20.808 177.618 21.352C177.117 21.896 176.514 22.328 175.81 22.648C175.117 22.9573 174.354 23.112 173.522 23.112C172.733 23.112 171.992 22.9733 171.298 22.696C170.616 22.4187 170.018 22.0293 169.506 21.528C168.994 21.016 168.594 20.4133 168.306 19.72C168.018 19.016 167.874 18.2427 167.874 17.4C167.874 16.568 168.018 15.8053 168.306 15.112C168.594 14.408 168.994 13.8 169.506 13.288C170.018 12.776 170.616 12.3813 171.298 12.104C171.992 11.8267 172.733 11.688 173.522 11.688C174.237 11.688 174.92 11.8053 175.57 12.04C176.221 12.2747 176.802 12.616 177.314 13.064C177.826 13.512 178.226 14.0613 178.514 14.712L177.122 15.224ZM182.44 20.04C182.504 20.3387 182.632 20.616 182.824 20.872C183.026 21.128 183.298 21.336 183.64 21.496C183.981 21.656 184.402 21.736 184.904 21.736C185.65 21.736 186.2 21.5653 186.552 21.224C186.914 20.872 187.096 20.4613 187.096 19.992C187.096 19.608 186.984 19.2933 186.76 19.048C186.546 18.792 186.248 18.5787 185.864 18.408C185.49 18.2267 185.058 18.0667 184.568 17.928C184.141 17.8 183.72 17.6667 183.304 17.528C182.898 17.3787 182.53 17.1973 182.2 16.984C181.869 16.76 181.608 16.4773 181.416 16.136C181.224 15.784 181.128 15.3467 181.128 14.824C181.128 14.1733 181.282 13.6133 181.592 13.144C181.901 12.6747 182.333 12.3173 182.888 12.072C183.453 11.816 184.104 11.688 184.84 11.688C185.458 11.688 186.013 11.7787 186.504 11.96C186.994 12.1307 187.405 12.3813 187.736 12.712C188.077 13.032 188.328 13.4213 188.488 13.88L187.032 14.408C186.968 14.1733 186.834 13.9547 186.632 13.752C186.429 13.5387 186.173 13.368 185.864 13.24C185.554 13.112 185.208 13.048 184.824 13.048C184.429 13.0373 184.072 13.1013 183.752 13.24C183.442 13.368 183.192 13.5547 183 13.8C182.818 14.0453 182.728 14.3387 182.728 14.68C182.728 15.0533 182.834 15.3467 183.048 15.56C183.261 15.7733 183.544 15.9493 183.896 16.088C184.258 16.2267 184.653 16.36 185.08 16.488C185.528 16.6267 185.965 16.776 186.392 16.936C186.818 17.096 187.202 17.2987 187.544 17.544C187.896 17.7893 188.178 18.0987 188.392 18.472C188.605 18.8347 188.712 19.2933 188.712 19.848C188.712 20.4453 188.573 20.9893 188.296 21.48C188.018 21.9707 187.597 22.3653 187.032 22.664C186.477 22.9627 185.778 23.112 184.936 23.112C184.242 23.112 183.618 23.0053 183.064 22.792C182.509 22.5787 182.05 22.2853 181.688 21.912C181.336 21.528 181.101 21.0853 180.984 20.584L182.44 20.04Z" fill="#EFEFF3"/>
</svg>
